<svg xmlns="http://www.w3.org/2000/svg" xmlns:xlink="http://www.w3.org/1999/xlink" width="820" height="312" viewBox="0 0 820 312"><defs><clipPath id="a"><rect width="820" height="312" transform="translate(85.496 45.345)" fill="none"/></clipPath><clipPath id="b"><rect width="30.344" height="92.743" transform="translate(84.291 44.92)" fill="none"/></clipPath><clipPath id="c"><rect width="93.61" height="69.505" transform="translate(82.871 43.703)" fill="none"/></clipPath><clipPath id="d"><rect width="104.948" height="38.657" transform="translate(540.038 233.874)" fill="none"/></clipPath><clipPath id="e"><rect width="78.11" height="28.52" transform="translate(571.797 288.555)" fill="none"/></clipPath><clipPath id="f"><rect width="29.018" height="77.917" transform="translate(635.203 159.407)" fill="none"/></clipPath><clipPath id="g"><path d="M708.193,271.353a102.8,102.8,0,0,0,46.378,85.992h113.01A103.293,103.293,0,0,0,905.5,312.282V230.427a102.9,102.9,0,0,0-197.3,40.926" fill="none"/></clipPath><clipPath id="i"><rect width="191.618" height="201.814" transform="translate(722.341 172.424)" fill="none"/></clipPath><clipPath id="j"><rect width="106.546" height="93.041" transform="translate(708.696 168.471)" fill="none"/></clipPath><clipPath id="m"><rect width="89.292" height="58.778" transform="translate(833.831 313.257)" fill="none"/></clipPath><clipPath id="n"><rect width="46.49" height="125.192" transform="translate(817.095 246.582)" fill="none"/></clipPath></defs><g transform="translate(-675.617 -705.348)"><rect width="820" height="312" transform="translate(675.617 705.348)" fill="#13646d"/><g transform="translate(590.121 660.003)"><g clip-path="url(#a)"><path d="M38.013,190.536c8.216.558,16.013,3.681,24.053,5.461a74.413,74.413,0,0,0,86.171-47.638c3.462-9.7,5.025-20.35,11.066-28.69,7.94-10.963,21.736-15.542,33.976-21.323,16.5-7.793,31.7-19.05,41.964-34.133s15.21-34.238,11.145-52.026c-36.6,1.2-72.818-6.605-109.27-10.056C91.793-2.16,45.983.3.965,7.1,0,35.9-.967,64.812,1.945,93.486c2.251,22.163,6.8,44.018,9.16,66.166.6,5.62,1.073,11.257,1.315,16.9.15,3.495-1.266,10.829,1.224,13.69,4.547,5.224,18.4-.116,24.369.29" fill="#8ceaf4"/><path d="M109.876,46.76A77.87,77.87,0,0,0,128.37,57.885a20.3,20.3,0,0,1,4.448-6.728c3.224-2.925,6.268-3.551,7.915-1.561,1.4,2.168-.122,4.88-3.894,7.053a18.369,18.369,0,0,1-6.472,2.046,78.553,78.553,0,0,0,10.246,3.265,20.248,20.248,0,0,1,3.571-7.657c2.787-3.354,5.714-4.39,7.614-2.643,1.68,1.957.555,4.847-2.879,7.526a19.449,19.449,0,0,1-6.846,3.114c1.4.323,2.8.608,4.223.851,2.559.435,5.152.748,7.751.951a20.4,20.4,0,0,1,2.665-8.055c2.377-3.647,5.166-5.008,7.257-3.5,1.889,1.75,1.114,4.751-1.983,7.807a19.4,19.4,0,0,1-6.383,3.865,84.514,84.514,0,0,0,10.028.046,20.547,20.547,0,0,1,2.3-8.221c2.214-3.747,4.933-5.239,7.091-3.826,1.979,1.663,1.327,4.7-1.63,7.889a19.045,19.045,0,0,1-5.918,4.03c1.686-.133,3.354-.3,5.025-.523.69-.1,1.424-.208,2.156-.326a20.359,20.359,0,0,1,7.091-4.433c4.156-1.3,7.181-.6,7.831,1.907.348,2.557-2.165,4.376-6.5,4.761a19.967,19.967,0,0,1-8.079-1.311A73.709,73.709,0,0,1,163.213,65.3a19.249,19.249,0,0,1,6.049,3.944c3.022,3.137,3.725,6.164,1.777,7.852-2.131,1.463-4.882.016-7.16-3.691a20.63,20.63,0,0,1-2.453-8.079,89.808,89.808,0,0,1-12.179-.777,20.022,20.022,0,0,1,5.914,5.308c2.425,3.609,2.605,6.714.407,8.049-2.353,1.061-4.822-.82-6.431-4.873a20.741,20.741,0,0,1-1.012-8.641,83.308,83.308,0,0,1-11.56-2.527,20.656,20.656,0,0,1,6.68,5.766c2.441,3.606,2.623,6.71.408,8.041-2.345,1.081-4.811-.82-6.414-4.857a21.165,21.165,0,0,1-.978-9.038c-2.06-.61-4.079-1.31-6.074-2.091-.64-.246-1.274-.515-1.909-.778-.193.009-.316.01-.316.01s.019-.046.05-.118q-2.182-.933-4.3-1.994a17.862,17.862,0,0,1,3.684,4.9c1.874,3.922,1.584,7.015-.8,8.013-2.478.705-4.633-1.528-5.627-5.766A20.47,20.47,0,0,1,121.2,55.5a78.8,78.8,0,0,1-11.924-8.006.474.474,0,0,1,.6-.734" fill="#3a8931"/><path d="M84.288,44.926s.492.288,1.416.832c.8.575,2.239,1.351,3.555,2.439A61.125,61.125,0,0,1,99.274,57.33a63.611,63.611,0,0,1,9.2,13.734,61.379,61.379,0,0,1,5.308,16.615,60.1,60.1,0,0,1,.383,17.429,62.632,62.632,0,0,1-4.27,15.968,68.084,68.084,0,0,1-3.236,6.639c-1.088,1.986-2.347,3.779-3.341,5.237a42.032,42.032,0,0,1-2.594,3.456c-.645.806-1.081,1.253-1.081,1.253s-.55-.277-1.426-.827c-.812-.567-2.252-1.352-3.574-2.437-1.406-1.067-3.181-2.357-4.852-3.889a68.463,68.463,0,0,1-5.2-5.241A62.377,62.377,0,0,1,75.4,111.538,60.412,60.412,0,0,1,70.146,94.9a61.215,61.215,0,0,1-.333-17.439,63.481,63.481,0,0,1,4.281-15.96,61.644,61.644,0,0,1,6.531-11.881c.9-1.452,2.008-2.659,2.585-3.451.7-.817,1.078-1.248,1.078-1.248" fill="#aed144"/><path d="M74.553,83.207q5.9-11.751,11.778-23.488L89.79,80.643c-.1.082-.217.138-.27.247q-6.231,12.429-12.462,24.851c-.4.81.915,1.3,1.312.5Q84.262,94.5,90.142,82.751l3.467,20.928c-.1.081-.224.149-.273.257q-3.6,7.172-7.2,14.345c-.4.814.916,1.3,1.311.5q3.261-6.5,6.513-12.99l4.748,28.683,1.149-.2-4.642-28.064q5.151,4.633,10.31,9.259c.669.616,1.485-.542.806-1.131q-5.736-5.163-11.481-10.321L91.4,83.175q.444.4.9.812c2.234,2.014,4.49,4.025,6.735,6.045,3.4,3.053,6.8,6.118,10.208,9.159.667.621,1.479-.533.813-1.13q-9.516-8.541-19.018-17.088L87.579,60.132c.3.271.6.541.889.81q3.372,3.018,6.738,6.052,5.113,4.579,10.21,9.164c.671.606,1.483-.545.813-1.143q-9.5-8.544-19.016-17.081l-.994-6.026-1.157.194.914,5.5c-.1.076-.224.138-.271.248Q79.466,70.272,73.247,82.7c-.412.809.9,1.3,1.306.506" fill="#246b1a"/><g opacity="0.1"><g clip-path="url(#b)"><path d="M99.649,137.663s.442-.447,1.081-1.247a41.978,41.978,0,0,0,2.6-3.456c.984-1.466,2.249-3.261,3.339-5.247a66.76,66.76,0,0,0,3.23-6.64,62.215,62.215,0,0,0,4.274-15.964,60.4,60.4,0,0,0-.381-17.432,61.785,61.785,0,0,0-5.307-16.619A63.621,63.621,0,0,0,99.28,57.331a61.5,61.5,0,0,0-10.016-9.136,41.389,41.389,0,0,0-3.556-2.436c-.917-.533-1.415-.831-1.417-.839Z" fill="#211a72"/></g></g><path d="M92.751,75.351a77.956,77.956,0,0,1,15.87,14.629,20.234,20.234,0,0,0-5.208,6.158c-1.9,3.914-1.649,7.011.725,8.035,2.471.731,4.646-1.489,5.674-5.719a18.446,18.446,0,0,0,.148-6.787,78.581,78.581,0,0,1,6.008,8.917,20.262,20.262,0,0,0-6.346,5.578c-2.436,3.616-2.61,6.715-.4,8.049,2.35,1.063,4.806-.828,6.413-4.877a19.432,19.432,0,0,0,1.067-7.444c.7,1.254,1.373,2.521,2,3.814,1.135,2.335,2.164,4.736,3.087,7.172a20.43,20.43,0,0,0-6.981,4.82c-2.834,3.306-3.355,6.365-1.324,7.948,2.211,1.321,4.875-.264,6.936-4.095a19.447,19.447,0,0,0,1.921-7.211,85.636,85.636,0,0,1,2.858,9.612,20.552,20.552,0,0,0-7.246,4.518c-2.972,3.18-3.643,6.207-1.678,7.882,2.149,1.428,4.884-.047,7.112-3.781a19.1,19.1,0,0,0,2.206-6.809c.345,1.652.658,3.3.91,4.968.1.69.2,1.425.29,2.161a20.385,20.385,0,0,0-2.261,8.051c-.086,4.356,1.442,7.06,4.026,6.979,2.554-.382,3.593-3.305,2.747-7.571a20,20,0,0,0-3.524-7.383,74.234,74.234,0,0,0-2.265-11.626,19.227,19.227,0,0,0,5.483,4.7c3.858,2.021,6.96,1.846,8.035-.5.8-2.456-1.357-4.692-5.553-5.836a20.648,20.648,0,0,0-8.442-.086,89.88,89.88,0,0,0-4.164-11.472,19.945,19.945,0,0,0,6.753,4.185c4.145,1.317,7.173.618,7.841-1.869.358-2.554-2.144-4.4-6.483-4.8a20.677,20.677,0,0,0-8.575,1.456,83.227,83.227,0,0,0-5.676-10.388,20.68,20.68,0,0,0,7.411,4.793c4.145,1.33,7.176.633,7.832-1.866.379-2.552-2.137-4.388-6.461-4.791a21.116,21.116,0,0,0-8.95,1.6c-1.165-1.806-2.4-3.548-3.713-5.244-.413-.546-.85-1.078-1.283-1.611-.043-.189-.077-.309-.077-.309l-.1.083q-1.5-1.832-3.12-3.568a17.864,17.864,0,0,0,5.736,2.162c4.293.695,7.178-.451,7.469-3.013-.018-2.577-2.769-4.019-7.116-3.783a20.433,20.433,0,0,0-8.051,2.592,78.351,78.351,0,0,0-11.031-9.195.472.472,0,0,0-.535.778" fill="#3a8931"/><path d="M82.873,46.088s.676-.174,1.952-.507c1.19-.2,3.112-.766,5.192-.962a74.974,74.974,0,0,1,16.587-.743,77.777,77.777,0,0,1,19.876,3.93,75.175,75.175,0,0,1,18.982,9.821,73.64,73.64,0,0,1,15.426,14.779,76.715,76.715,0,0,1,10.118,17.541,81.256,81.256,0,0,1,2.937,8.561,75.047,75.047,0,0,1,1.642,7.44,48.555,48.555,0,0,1,.744,5.239c.143,1.257.148,2.02.148,2.02s-.719.235-1.95.523c-1.2.2-3.127.775-5.215.977-2.142.287-4.8.708-7.575.828a83.473,83.473,0,0,1-9.04-.041,76.613,76.613,0,0,1-19.862-3.947,74.02,74.02,0,0,1-18.952-9.872A74.565,74.565,0,0,1,98.5,86.83,77.5,77.5,0,0,1,88.39,69.282a75.741,75.741,0,0,1-4.627-15.946c-.47-2.041-.555-4.056-.742-5.235-.1-1.309-.148-2.013-.148-2.013" fill="#aed144"/><path d="M107.568,87.707q-5.049-15.287-10.12-30.558l21.117,15.143a1,1,0,0,0-.021.449q5.358,16.176,10.71,32.343c.359,1.049,1.916.337,1.57-.7Q125.771,89.1,120.7,73.823l21.124,15.141a1.075,1.075,0,0,0-.025.464q3.1,9.332,6.18,18.672c.355,1.048,1.927.33,1.573-.695q-2.8-8.467-5.592-16.906l28.947,20.755.824-1.166L145.412,89.782q8.477-.444,16.954-.9c1.113-.042.818-1.75-.274-1.672q-9.448.479-18.9.985L122.149,73.1c.5-.021.993-.04,1.478-.071,3.687-.191,7.386-.394,11.08-.584q8.393-.447,16.779-.9c1.116-.044.823-1.749-.273-1.68q-15.645.818-31.285,1.64L98.889,56.426c.5-.027.987-.054,1.484-.077,3.689-.2,7.389-.392,11.074-.573q8.4-.459,16.789-.9c1.11-.054.818-1.751-.283-1.684Q112.314,54,96.676,54.829L90.6,50.474l-.843,1.157,5.558,3.978a.983.983,0,0,0-.026.455Q100.645,72.236,106,88.4c.342,1.057,1.9.338,1.565-.7" fill="#246b1a"/><g opacity="0.1"><g clip-path="url(#c)"><path d="M176.481,113.208c0-.007,0-.769-.144-2.024a52.579,52.579,0,0,0-.734-5.246c-.418-2.118-.869-4.776-1.655-7.439a79.326,79.326,0,0,0-2.939-8.554A76.43,76.43,0,0,0,160.9,72.4a74.24,74.24,0,0,0-15.423-14.783A75.438,75.438,0,0,0,126.484,47.8a77.5,77.5,0,0,0-19.866-3.935,75.328,75.328,0,0,0-16.6.741,52.07,52.07,0,0,0-5.189.967c-1.257.334-1.953.508-1.959.505Z" fill="#211a72"/></g></g><path d="M210.124,335.376a.95.95,0,1,0-.951.951.951.951,0,0,0,.951-.951" fill="#fff"/><path d="M160.621,228.218a1.425,1.425,0,1,0-1.424,1.427,1.425,1.425,0,0,0,1.424-1.427" fill="#fff"/><path d="M425.021,256.755a.95.95,0,1,0-.95.951.95.95,0,0,0,.95-.951" fill="#fff"/><path d="M172.26,302.174a2.32,2.32,0,1,0-2.321,2.323,2.321,2.321,0,0,0,2.321-2.323" fill="#fff"/><path d="M504.806,195.6a1.425,1.425,0,1,0-1.424,1.427,1.425,1.425,0,0,0,1.424-1.427" fill="#fff"/><path d="M222.139,251.145a.95.95,0,1,0-.95.951.95.95,0,0,0,.95-.951" fill="#fff"/><path d="M719.7,70.976a.95.95,0,1,0-.95.951.95.95,0,0,0,.95-.951" fill="#fff"/><path d="M773.542,153.412a1.425,1.425,0,1,0-1.424,1.427,1.425,1.425,0,0,0,1.424-1.427" fill="#fff"/><path d="M637.848,151.608a1.425,1.425,0,1,0-1.424,1.427,1.425,1.425,0,0,0,1.424-1.427" fill="#fff"/><path d="M496.071,135.038a.95.95,0,1,0-.95.951.95.95,0,0,0,.95-.951" fill="#fff"/><path d="M392.193,326.271a.95.95,0,1,0-.95.951.95.95,0,0,0,.95-.951" fill="#fff"/><path d="M582.845,95.436a.95.95,0,1,0-.95.951.95.95,0,0,0,.95-.951" fill="#fff"/><path d="M326.6,87.865a1.425,1.425,0,1,0-1.424,1.427,1.425,1.425,0,0,0,1.424-1.427" fill="#fff"/><path d="M444.024,93.32a.95.95,0,1,0-.95.951.95.95,0,0,0,.95-.951" fill="#fff"/><path d="M216.205,201.429a2.168,2.168,0,1,0-2.167,2.17,2.169,2.169,0,0,0,2.167-2.17" fill="#fff"/><path d="M662.964,276.5c-77.013,67.843-206.093,83.68-206.093,83.68l5.823,3.106c46.77,32.679,113.216,33.009,174.6,33.009,128.665,0,237.613-84.243,274.807-200.568C785.21,128.581,739.926,208.7,662.964,276.5" fill="#829b1b"/><path d="M756.46,296.814a127,127,0,0,1-27.321,22.234c-1.447-2.4-4.556-6.989-8.738-9.842-5.875-3.987-10.938-4.292-13.138-.694-1.756,3.817,1.318,7.846,7.916,10.5a30.311,30.311,0,0,0,10.924,1.816,129.674,129.674,0,0,1-15.8,7.634c-.937-2.335-3.474-7.864-7.541-11.556-5.271-4.768-10.244-5.764-12.916-2.509-2.262,3.547.226,7.964,6.393,11.494a31.591,31.591,0,0,0,11.781,3.459c-2.186.837-4.4,1.628-6.632,2.346-4.036,1.294-8.155,2.388-12.3,3.318-.649-2.381-2.519-8.231-6.173-12.4-4.678-5.344-9.5-6.9-12.528-3.988-2.654,3.266-.7,7.937,5.008,12.16a31.767,31.767,0,0,0,11.2,4.778,139.587,139.587,0,0,1-16.189,2.381c-.52-2.36-2.134-8.367-5.622-12.753-4.442-5.542-9.182-7.326-12.336-4.546-2.814,3.141-1.065,7.9,4.452,12.375a31.1,31.1,0,0,0,10.49,5.143c-2.748.173-5.493.3-8.234.315-1.139,0-2.356-.006-3.564-.038-2.138-1.485-7.173-4.657-12.483-5.521-7.013-1.155-11.732.694-12.211,4.883.021,4.209,4.508,6.566,11.6,6.2,5.181-.267,10.335-2.68,12.75-3.974a120.961,120.961,0,0,0,19.3-.961,31.413,31.413,0,0,0-8.859,7.766c-4.154,5.764-4.6,10.814-1.062,13.1,3.779,1.867,7.9-1.1,10.719-7.621,2.176-5.028,2.2-11.108,2.1-13.617a145.984,145.984,0,0,0,19.506-4.06c-2.211,1.829-6.167,5.49-8.329,9.935-3.1,6.392-2.672,11.445,1.2,13.1,4.039,1.18,7.592-2.44,9.262-9.349,1.367-5.657.135-12.066-.358-14.2a138.045,138.045,0,0,0,18.1-6.756c-1.537,1.162-6.84,5.427-9.474,10.858-3.109,6.385-2.685,11.441,1.194,13.09,4.036,1.2,7.583-2.436,9.248-9.332,1.562-6.44-.242-13.846-.5-14.824q4.773-2.191,9.335-4.775c.982-.545,1.943-1.128,2.9-1.7.32-.031.514-.059.514-.059s-.038-.069-.1-.184c2.2-1.336,4.376-2.738,6.489-4.209A29.254,29.254,0,0,0,731.6,325c-2.114,6.77-.94,11.705,3.13,12.77,4.175.566,7.142-3.543,7.767-10.619.482-5.483-1.427-11.271-2.322-13.607A129.235,129.235,0,0,0,757.6,297.869a.779.779,0,0,0-1.145-1.055" fill="#246b1a"/><path d="M722.556,305.541a1.617,1.617,0,0,0-.9-.951c-.09-.035-.184-.076-.277-.114A226.924,226.924,0,0,0,697.6,285.917a1.525,1.525,0,0,0-.243-.319c-21.546-22.512-35.118-54.715-39.845-85.42-.347-2.214-3.834-1.981-3.491.24,4.283,27.782,15.523,56.495,33.224,78.812a269.1,269.1,0,0,0-33.13-17.126c-20-8.668-41.745-16-63.448-18.992-2.222-.309-2.883,3.12-.65,3.428,20.951,2.9,41.743,9.942,61.145,18.1A245.713,245.713,0,0,1,711,300.166c-26.672-10.269-57.223-15.956-85.31-11.754-2.221.333-1.992,3.824.243,3.484,31.112-4.653,65.315,3.016,93.628,15.6a198.613,198.613,0,0,1,34.98,41.306c1.2,1.9,4.085-.062,2.884-1.968a199.417,199.417,0,0,0-34.869-41.288" fill="#aed144"/><path d="M644.983,258.215l-1.506,1.135c-.951.6-2.409,1.78-4.133,2.7a70.472,70.472,0,0,1-14.062,6.6,72.58,72.58,0,0,1-18.574,3.737,70.292,70.292,0,0,1-19.923-1.655,69.234,69.234,0,0,1-18.631-7.225,71.577,71.577,0,0,1-15.035-11.518,75.9,75.9,0,0,1-5.609-6.333c-1.635-2.019-2.981-4.15-4.1-5.833a48.952,48.952,0,0,1-2.519-4.262c-.571-1.037-.85-1.693-.85-1.693s.536-.462,1.506-1.145c.951-.611,2.413-1.794,4.14-2.721,1.745-1.017,3.892-2.335,6.25-3.435a77.636,77.636,0,0,1,7.82-3.21,71.515,71.515,0,0,1,18.574-3.724,69.137,69.137,0,0,1,19.907,1.718,69.877,69.877,0,0,1,18.616,7.284,72.827,72.827,0,0,1,15.035,11.528,70.672,70.672,0,0,1,9.72,12.118c1.141,1.586,1.936,3.286,2.523,4.247.558,1.1.85,1.687.85,1.687" fill="#aed144"/><path d="M608.707,231.143q9.857,11.383,19.716,22.754l-23.677-5.5a1.046,1.046,0,0,0-.141-.392q-10.437-12.045-20.863-24.08c-.683-.784-1.78.392-1.11,1.166q9.864,11.385,19.723,22.751l-23.685-5.49a1,1,0,0,0-.145-.4Q572.5,235,566.481,228.044c-.683-.777-1.773.4-1.11,1.17q5.456,6.3,10.905,12.59l-32.45-7.531-.3,1.3,31.763,7.371q-7.168,3.43-14.323,6.864c-.942.437-.075,1.8.843,1.347q7.984-3.81,15.957-7.638l23.593,5.472c-.416.2-.829.4-1.248.594q-4.67,2.238-9.352,4.487-7.089,3.4-14.178,6.8c-.94.441-.077,1.8.845,1.353q13.2-6.324,26.425-12.652l23.585,5.469q-.623.3-1.249.593-4.677,2.244-9.354,4.48-7.09,3.4-14.183,6.8c-.934.441-.068,1.8.853,1.354q13.212-6.315,26.424-12.649l6.813,1.575.309-1.3-6.226-1.44a.96.96,0,0,0-.142-.4q-10.436-12.045-20.869-24.079c-.68-.785-1.769.392-1.1,1.169" fill="#3a8931"/><g opacity="0.1"><g clip-path="url(#d)"><path d="M540.038,233.874s.28.66.85,1.694a48.762,48.762,0,0,0,2.52,4.261c1.119,1.683,2.463,3.814,4.1,5.833a76.289,76.289,0,0,0,5.61,6.334,71.529,71.529,0,0,0,15.036,11.517,69.182,69.182,0,0,0,18.63,7.225,70.327,70.327,0,0,0,19.921,1.656,72.59,72.59,0,0,0,18.574-3.738,70.127,70.127,0,0,0,14.06-6.6c1.728-.92,3.192-2.1,4.136-2.7.979-.743,1.506-1.135,1.513-1.135Z" fill="#211a72"/></g></g><path d="M649.907,288.551s-.222.437-.642,1.246c-.444.715-1.041,1.975-1.891,3.151a52.727,52.727,0,0,1-7.277,8.96,53.631,53.631,0,0,1-11.223,8.512,52.022,52.022,0,0,1-13.867,5.341,51.491,51.491,0,0,1-14.806,1.2,53.255,53.255,0,0,1-13.789-2.842,57.381,57.381,0,0,1-5.8-2.419c-1.751-.829-3.344-1.822-4.631-2.588a35.3,35.3,0,0,1-3.073-2.031c-.713-.513-1.112-.856-1.112-.856s.208-.483.638-1.257c.438-.718,1.036-1.981,1.888-3.161.836-1.246,1.85-2.821,3.073-4.317a55.407,55.407,0,0,1,4.194-4.678,53.406,53.406,0,0,1,11.222-8.509,51.133,51.133,0,0,1,13.88-5.285,51.742,51.742,0,0,1,14.816-1.155,53.909,53.909,0,0,1,13.794,2.852,52.114,52.114,0,0,1,10.424,4.962c1.274.691,2.36,1.572,3.061,2.027.732.552,1.121.85,1.121.85" fill="#aed144"/><path d="M616.473,282q10.278,4.43,20.556,8.846l-17.624,3.987c-.076-.083-.132-.184-.224-.219q-10.881-4.684-21.755-9.366c-.707-.3-1.063.836-.364,1.142q10.281,4.424,20.565,8.842l-17.632,3.991c-.068-.083-.131-.184-.226-.222l-12.559-5.411c-.711-.3-1.058.844-.369,1.142q5.694,2.453,11.373,4.9l-24.152,5.462.22.965,23.643-5.341q-3.688,4.607-7.366,9.221c-.489.6.534,1.228,1,.631q4.116-5.132,8.21-10.275l17.558-3.97c-.217.271-.427.531-.642.8-1.6,2.006-3.21,4.022-4.809,6.028q-3.642,4.564-7.29,9.137c-.483.6.536,1.235,1,.635q6.793-8.511,13.591-17.021l17.556-3.974c-.215.268-.43.538-.645.8-1.6,2.006-3.206,4.026-4.806,6.025q-3.656,4.575-7.3,9.144c-.478.6.542,1.232,1.016.631q6.788-8.5,13.589-17.021l5.07-1.149-.222-.961-4.63,1.045c-.076-.091-.135-.188-.218-.222q-10.884-4.686-21.762-9.37c-.711-.3-1.06.843-.359,1.145" fill="#3a8931"/><g opacity="0.1"><g clip-path="url(#e)"><path d="M571.8,306.225s.4.344,1.114.857a34.673,34.673,0,0,0,3.07,2.03c1.289.767,2.883,1.76,4.632,2.589a58.129,58.129,0,0,0,5.8,2.419,53.338,53.338,0,0,0,13.791,2.842,51.949,51.949,0,0,0,28.67-6.538,53.427,53.427,0,0,0,11.223-8.513,52.445,52.445,0,0,0,7.277-8.96c.854-1.176,1.447-2.436,1.891-3.151l.643-1.245Z" fill="#211a72"/></g></g><path d="M664.225,237.324s-.441-.218-1.256-.628c-.719-.437-1.978-1.02-3.165-1.857a52.439,52.439,0,0,1-9.04-7.179,53.521,53.521,0,0,1-8.634-11.133,52.035,52.035,0,0,1-5.49-13.808,51.34,51.34,0,0,1-1.353-14.793,52.777,52.777,0,0,1,2.693-13.815,56.588,56.588,0,0,1,2.353-5.83c.808-1.756,1.783-3.363,2.533-4.654a34.812,34.812,0,0,1,2-3.092c.507-.725.847-1.128.847-1.128s.482.205,1.263.628a36.1,36.1,0,0,1,3.179,1.85c1.252.826,2.842,1.819,4.351,3.026a54.482,54.482,0,0,1,4.723,4.151,53.165,53.165,0,0,1,8.631,11.125,50.918,50.918,0,0,1,5.431,13.822,51.9,51.9,0,0,1,1.318,14.8,54.053,54.053,0,0,1-2.7,13.826,51.78,51.78,0,0,1-4.851,10.473c-.677,1.287-1.544,2.377-1.992,3.088-.541.739-.84,1.128-.84,1.128" fill="#aed144"/><path d="M670.534,205.6q-4.32,10.321-8.616,20.651l-4.182-17.587c.086-.073.187-.125.218-.222q4.57-10.937,9.127-21.848c.295-.715-.843-1.062-1.145-.358q-4.3,10.332-8.617,20.658l-4.181-17.587a.69.69,0,0,0,.222-.229q2.639-6.309,5.268-12.617c.295-.712-.851-1.048-1.146-.354q-2.383,5.72-4.771,11.427l-5.719-24.094-.968.233,5.6,23.58q-4.648-3.633-9.3-7.267c-.61-.482-1.225.549-.618,1.007q5.169,4.065,10.359,8.1l4.164,17.51c-.277-.215-.541-.42-.812-.635-2.02-1.579-4.053-3.168-6.073-4.74q-4.611-3.591-9.22-7.194c-.6-.472-1.225.549-.625,1.013q8.589,6.705,17.171,13.406l4.161,17.511c-.271-.209-.542-.42-.8-.639-2.03-1.575-4.068-3.161-6.083-4.74q-4.613-3.6-9.218-7.2c-.6-.472-1.228.558-.624,1.023q8.572,6.7,17.17,13.406l1.2,5.056.962-.233-1.1-4.611c.083-.08.184-.139.222-.23q4.564-10.926,9.134-21.858c.284-.712-.854-1.052-1.156-.344" fill="#3a8931"/><g opacity="0.1"><g clip-path="url(#f)"><path d="M645.715,159.407s-.344.4-.843,1.128a34.472,34.472,0,0,0-2.006,3.092c-.753,1.29-1.728,2.9-2.537,4.653a56.024,56.024,0,0,0-2.349,5.83,52.785,52.785,0,0,0-2.693,13.815,51.345,51.345,0,0,0,1.35,14.794,52.237,52.237,0,0,0,5.49,13.808,53.416,53.416,0,0,0,8.637,11.132,52.112,52.112,0,0,0,9.04,7.18c1.18.836,2.45,1.419,3.169,1.857.815.406,1.249.628,1.249.628Z" fill="#211a72"/></g></g><path d="M715.615,201.2c1.649-2.918,1.592-5.412-.291-6.733-2.47-1.333-5.281.53-7.329,4.8a20.97,20.97,0,0,0-1.724,7.926,93.04,93.04,0,0,1-3.589-10.3,22.521,22.521,0,0,0,7.642-5.285c3.064-3.6,3.647-6.934,1.422-8.644-2.4-1.447-5.3.3-7.537,4.466a20.871,20.871,0,0,0-2.051,7.516c-.458-1.78-.881-3.56-1.238-5.358-.143-.742-.289-1.537-.424-2.332a22.164,22.164,0,0,0,2.047-8.866c-.121-4.73-1.925-7.593-4.726-7.378-2.755.538-3.737,3.772-2.606,8.367a21.784,21.784,0,0,0,4.2,7.846,79.845,79.845,0,0,0,3.054,12.517,20.974,20.974,0,0,0-6.2-4.83c-4.289-1.989-7.658-1.645-8.706.957-.757,2.707,1.71,5.025,6.329,6.056a22.184,22.184,0,0,0,9.176-.337,97.344,97.344,0,0,0,5.115,12.267,21.631,21.631,0,0,0-7.558-4.205c-4.571-1.232-7.829-.313-8.423,2.425-.264,2.794,2.551,4.664,7.284,4.886a22.453,22.453,0,0,0,9.249-2.012,92.3,92.3,0,0,0,6.7,11.007,22.821,22.821,0,0,0-8.3-4.844c-4.57-1.232-7.825-.319-8.419,2.429-.281,2.79,2.544,4.654,7.271,4.886a22.893,22.893,0,0,0,9.64-2.193c1.353,1.9,2.793,3.737,4.3,5.507.482.576.985,1.128,1.478,1.687.063.2.1.333.1.333a1.429,1.429,0,0,1,.114-.094c1.152,1.274,2.343,2.519,3.568,3.72a19.628,19.628,0,0,0-6.347-2.061c-4.692-.531-7.777.853-7.968,3.654.16,2.8,3.22,4.23,7.923,3.751a22.234,22.234,0,0,0,8.62-3.231,85.449,85.449,0,0,0,12.458,9.446.52.52,0,0,0,.548-.884,84.058,84.058,0,0,1-17.986-15.093,22.051,22.051,0,0,0,5.344-6.957c1.871-4.342,1.433-7.7-1.2-8.683-2.721-.669-4.976,1.846-5.879,6.493a20.362,20.362,0,0,0,.177,7.381,86.44,86.44,0,0,1-6.975-9.38,22.089,22.089,0,0,0,6.618-6.385c2.457-4.053,2.484-7.43.021-8.769-2.606-1.038-5.185,1.141-6.719,5.625a20.87,20.87,0,0,0-.787,8.145q-1.241-1.989-2.364-4.043c-1.36-2.485-2.592-5.042-3.723-7.638a22.163,22.163,0,0,0,7.346-5.6,15.972,15.972,0,0,0,1.325-1.966" fill="#aed144"/><path d="M913.959,271.353A102.883,102.883,0,1,1,811.074,168.471,102.883,102.883,0,0,1,913.959,271.353" fill="#8ceaf4"/></g></g><g transform="translate(590.121 660.003)"><g clip-path="url(#g)"><path d="M734.462,325.45s.871,3.96-.8,6.1-4.647,5.427-3.616,10.144,4.577,13.082,7.405,14.894,6.469,2.713,6.073,7.516-2.62,15.783-2.891,19.51-3.626,20.013-2.557,27.1,6.194,9.578,7.825,9.249-1.718-9.339,0-12.313,3.446-4.067,4.852-8.748,3.956-6.448,6.59-7.125,1.943-4.383,4.854-7.172,6.979-7.333,7.371-10.4,1.114-6.736,5.081-6.441,6.413-2.533,7.027-7.9,1.44-8.079,2.807-10.019,2.506-5.087-.826-7.849-7.436-.969-10.192-3.491a11.253,11.253,0,0,0-7.055-2.884c-1.273-.084.5-7.614-3.775-8.8s-5.709-1.6-7.33-3.681-7.436-3.946-10.75-3.1-5.334,1.9-8.051,1.977-3.245-.846-5.917-.891-4.782-1.434-4.41-4.116-1.857-3.685-4.661-5.021-1.7-4.026-4.522-3.315-6.833-3.754-6.6-6.444.2-11.451,5.17-10.133,10.48,2.86,13.485,5.119-.419-6.392,1.423-8.207,7.607-2.835,7.784-5.66,2.047-9.522,6.3-12.305,8.634-2.787,10.567-4.651,6.527-9.581,5.25-12.4-5.4-8.658-7.36-11.448-5.06-.434-7.739-.888-2.356-5.3-4.785-5.7-6.268,1.2-6.16,4.1,2.384,7.735.33,9.345-3.3,3.863-6.5.8-9.457-4.615-11.289-7.655-2.506-6.257,2.29-9.591,10.65-7.413,10.675-9.554-2.693-5.383-4.518-5.032-1.309,3.821-3.592,3.571-4.411-7.4-6.694-8.478-.528,7.739-3.512,8.478a20.7,20.7,0,0,1-10.626,0c-4.609-1.107-5.771-.6-8.984,0s-3.807-.292-7.316-1.763-4.726-2.218-11.705-1.624-10.528,1.957-14.21,0-10.685.576-15.685.368-11.445,3.054-11.459,7.239c-.017,8.956,16.345,11.577,21.935,12.7s12.351,5.861,14.169,11.167,8.19,6.587,9.29,12.667,1.71,16.261,3.432,19.377,12.989,10.182,15.185,15.273,7.007,9.883,10.484,12.86,11.694,4.019,14.672,6.094,7.336,10.813,13.756,9.151" fill="#3a8931"/><path d="M680.733,204.409a5.913,5.913,0,0,0-3.97,6.312c.292,2.9,2.742,3.721,4.949,3.373,2.2-.333,6.2.566,7.349,3.124s6.188,1.572,10.071,1.18,7.593-1.513,5.268-3.374-2.075-4.6-3.564-6.079-2.849.024-5.785.371-7.18-1.43-9.529-2.738-2.207-3.026-4.789-2.169" fill="#3a8931"/><path d="M684.734,196.431c-2.9.784-6.573,3.38-5.594,4.414s5.33,1.9,7.586-1.075,3.918-5.317,2.335-4.505a16.467,16.467,0,0,1-4.327,1.166" fill="#3a8931"/><path d="M689.683,200.314c-1.125.652-3.071,3.4-.622,4.459s7.871,1.121,9.8-.59.607-4.685-.854-5.614c-1.479-.93-7.2,1.093-8.325,1.745" fill="#3a8931"/><path d="M751.765,179.364c-4.1-1.27-6.476-2.266-12.6-1.562s-13.086,3.964-17.312,4.418-8.457,2.4-9.721,5.233,6.924,5.466,8.662,7.648,8.2,4.373,11.941,2.672c3.737-1.686,5.271-6.9,8.77-9,3.483-2.1,11.642-8.977,10.261-9.411" fill="#3a8931"/><path d="M709.272,190.365a8.461,8.461,0,0,0-6.593.909c-1.2.76-.3,4.019-.354,5.889s-.76,5.5.982,8.492,1.332,7.249,5.08,7.339,6.8-2.679,9.477-4.344,11.511-1.423,13.222-4.307-1.083-2.492-5.7-2.759-7.2-2.863-10.084-5.67-4.328-5.039-6.035-5.549" fill="#3a8931"/><path d="M725.082,208.393c-4.8.694-5.2,3.842-4.439,6.517s6.747-1.555,8.645,0,5.594,5.306,4,8.37,1.918,5.577,6.409,6.163,8.665,2.919,10.848.049,2.953-6.028-1.333-8.471-4.552-6.1-7.172-8.027-6.011-6.138-9.041-5.951a60.408,60.408,0,0,0-7.915,1.35" fill="#3a8931"/><path d="M762.814,180.53c-3.533,1.215-12.007,5.316-13,7.86s-5.382,3.213-5.985,5.958,3.546,3.065,9.06,4.449,7.531,3.62,8.03,8.242,7.968,5.657,6.153,10.928-2.981,8.3-.888,12.562,7.846,9.512,9.463,8.96,4.282-12.156,8.6-14.547,16.452-6.566,17.025-8.037c.558-1.479,2.842-17.771,2.408-20.787s7.253-7.752,7.513-11.247-8.117-1.485-12.021-2.21-7.083-4.474-12.8-4.859-19.8,1.448-23.556,2.728" fill="#3a8931"/><path d="M826.333,270.513s-7.065-.986-7.9,0-.489,5.257-.982,6.638-.427,4.036.548,4.231,2.659,1.839,3.384,1.513a34.807,34.807,0,0,1,4.772-2.065c1.461-.389,1.523-2.544,2.627-4.328s1.1-4.979,5.059-6.169,6.517-.351,7.426.694,5.664,3.23,5.65,5.68,3.137-.743,2.918-1.575-4.091-4.172-5.281-5.275-1.562-3.349-.517-3.7,4.466,4.466,5.33,4.869,2.391,1.936,2.2,3.216,2.072,6.955,3.009,7.139,2.682-1.069,2.3-2.19-2.068-3.009-.885-3.842,4.282-.163,5.684-1.107-.722-2.165.5-4.494,2.019-5.822,3.574-5.347,1.561,5.014,2.665,4.8,4.5-1.815,7,.955,1.76,3.758-.812,4.087-7.468-.586-8.692.476-5.792,1.735-5.817,2.929,1.163,4.629,2.7,4.306,7.766-1.193,8.346-.822-1.59,8.453-3.231,8.8-2.978.424-4.512.733A11.731,11.731,0,0,1,856.35,289c-1.655-1.274-4.233.118-6.957,1.2s-6.094-1.409-7.319-2.471.188-3.56,0-4.674-4.779-2.579-6.611-1.669-7.318,2.03-9.081,2.488-4.213-.483-4.588-.323-1.051,3.012-2.755,3.682-1.715,3.182-2.693,5.8-5.573,6.364-6.247,11.879,0,10.962,2.45,15.348,5.882,6.219,10.171,6.087,12.063-1.686,14.457,0,2.634,5.507,1.961,8.409.729,5.16,3.373,9.9,3.911,7,2.322,10.6-1.784,5.712-.243,9.616,1.155,5.449,1.409,9.054c.236,3.609,2.328,12.163,4.959,12.586s7.839-2.4,9.917-5.441,5.209-9.269,7.538-11.174,1.19-6.871,2.44-8.457,5.5-4.345,5.2-8.655-1.825-9.97.018-13.724,9.352-9.766,10.31-12.66,2.918-6.715,1.148-6.569-3.185,1.038-6.562.7-5.337-7.323-6.368-8.645-4.865-8.2-4.834-10.161-2.759-7.776-1.353-7.846,4.986,7.142,6.139,9.335a78.383,78.383,0,0,1,4.362,9.6c.892,2.772,2.248,3.831,3.571,3.574s12.666-6.43,14.228-8.505,2.37-5.678.694-6.552-2.544-3.432-2.985-2.651-1.936,2.467-3.154,2.415-4.692-5.205-5.279-6.944.983-3.172,1.663-3.1,2.72,5.49,5.406,5.448,2.96,1.131,4.873,2.19,9.893-1.1,10.771,1.322,3.366,6.458,5.043,5.833,1.328,2.367,2.56,6.059,3.5,12.208,4.539,12.51,4.106-4.577,4.161-7.266.052-4.435,2.45-6.424,5.365-5.927,7.42-6.871,4.972,3.661,5.087,6.083,2.686,1.7,3.3,4.168,2.27,10.8,3.369,13.315,5.085,3.259,3.866,1.18-4.289-9.689-3.067-11.316,5.174,5.58,7.308,4.529,2.127-7.676.559-10.341-.573-6.927,1.447-7.618,9.432-1.551,11.267-4.1,5.553-7.495,4.5-10.348-5.493-8.974-3.328-11.146,7.152-1.059,7.985,1.877,3.307,5.029,4.3,3.748-.382-8.071,2.165-10.3,9.863-8.346,10.779-11.455.819-9.085-1.138-10.355-3.085-2.725-2.228-3.928,4.959-7.92,10.716-7.215,7.1,1.856,9.619.961,2.759-5.2,6.188-5.063,7.391-3.477,7.735-2.054-2.97,3.987-4.969,6.191-5.6,6.242-5.466,10.49,1.291,4.668,2.485,4.286,5.143-8.908,5.646-11.292,3.123-5.674,5.764-5.338,11.778-2.883,13.18-4.667-1.69-5.105.246-5.323,7.534,3.255,9.928,2.12-2.151-5.653-4.292-6.219-10.779-4.244-12.438-3.536-5.757-.212-7.53-1.346a21.631,21.631,0,0,0-10.782-2.194c-3.553.427-5.021-2.54-7.593-3.182s-10.473-2.755-13.5-1.415a22.914,22.914,0,0,1-9.713,1.627c-1.832-.281-4.354-3.04-5.944-4.591s-8.516-1.336-10.563-1.27-7.142-1.138-9.894-.253-8.46.923-6.5,0,9.2-3.887,9.31-6.115-2.509-3.47-5.639-3.4-7.173-2.006-8.884-.389-8.682,2.28-11.993,4.421-2.207,4.012-4.841,4.654-6.739,2.2-6.368,5.032-3.667,1.256-5.76,2.97-.25,5.733-2.387,7.565-5.226,1.624-4.238.639,3.582-3.422,3.287-6.552c-.278-3.137,1.075-7.3-1.628-7.759s-4.653,2.716-4.532,4.764,1.69,5.941.968,6.579-2.686-2.148-7.027-3.129-3.925,2.352-5.879,2.7-6.742-.07-10.108,2.054-4.4,1.912-6.427,2.582-3.824,3.411-5.865,4.032-3.64,1.791-4.619-.322-4.452-5.327-2.842-4.817,9.078,1.433,9.543-.059-7.242-5.466-8.481-6.146-5.254-4.282-9.3-3.6-11.007,3.98-13.034,7.149-5.92,9.571-8.082,10.934-4.161,4.366-3.7,7.014,2.509,4.483,3.62,3.9,3.012-3.56,3.46-2.714,1.194,4.248,1.926,5.869,1.513,1.711,3.029.687,2.214-5.431,2.114-7.624-.108-6.8,2.39-8.478,3.842-5.48,5.532-4.65-.41,3.376-1.381,5.712-1.8,6.465-.441,6.524,7.128-1.329,7.322,0c.177,1.325-6.166,1.339-5.916,3.942s-1.791,3.383-3.085,4.768-7.114,5.275-10.178,4.706-7.444-.285-9.4,2.151-3.283,5.278-5.854,6.9-1.287,8.35-1.652,9.443" fill="#3a8931"/><path d="M822.842,258.8c2.377.871,6.985-3.109,7.107-4.879s-2.745-3.685-3.3-5.517-.263-4.273-1.173-5.515-5.1.077-5.028,1.524.816,2.727,1.975,4.667-.743,9.3.423,9.72" fill="#3a8931"/><path d="M816.776,256.473c2.04,1.3,4.126-1.589,4.143-3.8s.146-4.476-1.509-4.4-4.963,6.711-2.634,8.2" fill="#3a8931"/></g></g><g transform="translate(590.121 660.003)"><g clip-path="url(#a)"><g opacity="0.1"><g clip-path="url(#i)"><path d="M839.4,172.424a102.936,102.936,0,0,1-117.054,151.02A102.893,102.893,0,1,0,839.4,172.424" fill="#211a72"/></g></g><g opacity="0.1"><g clip-path="url(#j)"><path d="M708.7,261.15c20.1,2.4,46.765-7.235,69.741-27.165,23.084-20,36.434-45.13,36.8-65.42-1.388-.056-2.772-.094-4.168-.094A102.9,102.9,0,0,0,708.7,261.15" fill="#fff"/></g></g><path d="M903.084,201.785a7.439,7.439,0,0,0-1.052.108,14.518,14.518,0,0,0-21.647-12.51,18.5,18.5,0,0,0-34.22,3.831,11.64,11.64,0,0,0-2.505-.282,11.923,11.923,0,1,0,8.9,19.781,18.33,18.33,0,0,0,24-.847,14.412,14.412,0,0,0,20.218,1.44,7.492,7.492,0,1,0,6.309-11.521" fill="#e6fcfa"/><path d="M903.084,212.217a7.49,7.49,0,0,1-6.309-3.47,14.411,14.411,0,0,1-20.218-1.444,18.32,18.32,0,0,1-24,.847,11.858,11.858,0,0,1-20.589-5.577,11.769,11.769,0,0,0-.229,2.28,11.874,11.874,0,0,0,20.818,7.86,18.331,18.331,0,0,0,24-.846,14.413,14.413,0,0,0,20.218,1.439A7.461,7.461,0,0,0,910.191,207a7.472,7.472,0,0,1-7.107,5.219" fill="#c8ebf3"/><path d="M705.118,286.438a5.156,5.156,0,0,1,.722.076,10.077,10.077,0,0,1,10.074-9.918,9.959,9.959,0,0,1,4.848,1.291,12.754,12.754,0,0,1,23.59,2.641,8.332,8.332,0,0,1,1.732-.187,8.218,8.218,0,1,1-6.142,13.631,12.635,12.635,0,0,1-16.546-.583,9.936,9.936,0,0,1-13.937,1,5.164,5.164,0,1,1-4.341-7.947" fill="#e6fcfa"/><path d="M705.118,293.628a5.138,5.138,0,0,0,4.341-2.388,9.94,9.94,0,0,0,13.937-1,12.64,12.64,0,0,0,16.546.586,8.179,8.179,0,0,0,14.2-3.845,7.9,7.9,0,0,1,.16,1.576,8.187,8.187,0,0,1-14.356,5.413,12.636,12.636,0,0,1-16.546-.582,9.937,9.937,0,0,1-13.937.995,5.161,5.161,0,0,1-9.515-2.779,5.293,5.293,0,0,1,.267-1.576,5.157,5.157,0,0,0,4.907,3.6" fill="#c8ebf3"/><path d="M807.493,339.164a4.255,4.255,0,0,0-.635.066,8.8,8.8,0,0,0-13.128-7.589,11.219,11.219,0,0,0-20.755,2.325,7.046,7.046,0,0,0-1.524-.17,7.23,7.23,0,1,0,5.4,12,11.126,11.126,0,0,0,14.558-.513,8.747,8.747,0,0,0,12.263.874,4.543,4.543,0,1,0,3.821-6.989" fill="#e6fcfa"/><path d="M807.493,345.491a4.533,4.533,0,0,1-3.821-2.106,8.738,8.738,0,0,1-12.263-.875,11.116,11.116,0,0,1-14.558.514,7.191,7.191,0,0,1-12.486-3.38,7,7,0,0,0-.139,1.381,7.2,7.2,0,0,0,12.625,4.768,11.125,11.125,0,0,0,14.558-.514,8.746,8.746,0,0,0,12.263.875,4.525,4.525,0,0,0,8.134-3.828,4.534,4.534,0,0,1-4.313,3.165" fill="#c8ebf3"/></g></g><g transform="translate(590.121 660.003)"><g clip-path="url(#a)"><path d="M833.837,372.035l.26-1.815c.254-1.072.445-2.887,1.01-4.709a68.561,68.561,0,0,1,5.185-14.221,71.028,71.028,0,0,1,10.282-15.335,68.5,68.5,0,0,1,14.915-12.534,67.122,67.122,0,0,1,17.84-7.795,69.92,69.92,0,0,1,18.309-2.363,75.681,75.681,0,0,1,8.232.524c2.512.281,4.9.823,6.829,1.229a46.782,46.782,0,0,1,4.671,1.214c1.107.323,1.752.583,1.752.583s-.051.687-.249,1.826c-.24,1.079-.441,2.9-1,4.726-.507,1.9-1.086,4.286-1.957,6.663a77.705,77.705,0,0,1-3.207,7.6,69.72,69.72,0,0,1-10.285,15.325,67.3,67.3,0,0,1-14.953,12.485A68.276,68.276,0,0,1,873.6,373.18a70.959,70.959,0,0,1-18.306,2.35,68.925,68.925,0,0,1-15.047-1.7c-1.88-.316-3.6-.948-4.66-1.208-1.142-.375-1.749-.583-1.749-.583" fill="#4cad3e"/><path d="M877.517,365.847q-14.642-1.108-29.261-2.2L868.4,351.192a1,1,0,0,0,.371.177q15.486,1.161,30.962,2.325c1.006.066.954-1.495-.039-1.568q-14.627-1.1-29.264-2.19l20.148-12.465a.921.921,0,0,0,.382.174q8.937.677,17.875,1.353c1.01.066.951-1.5-.035-1.572q-8.094-.609-16.185-1.214l27.616-17.078-.691-1.1-27.022,16.706q2.6-7.289,5.191-14.579c.354-.954-1.19-1.3-1.509-.354q-2.906,8.115-5.792,16.241l-20.072,12.413q.23-.63.458-1.267c1.132-3.165,2.252-6.35,3.387-9.526,1.708-4.813,3.432-9.626,5.129-14.432.358-.954-1.179-1.3-1.513-.361q-4.783,13.455-9.581,26.9l-20.065,12.41c.153-.424.3-.851.458-1.264q1.688-4.763,3.394-9.529,2.56-7.224,5.133-14.436c.34-.951-1.191-1.3-1.524-.354q-4.8,13.436-9.578,26.891l-5.8,3.584.691,1.114,5.288-3.276a.87.87,0,0,0,.371.178q15.486,1.166,30.965,2.318c1.01.083.958-1.486-.031-1.562" fill="#aacd44"/><g opacity="0.1"><g clip-path="url(#m)"><path d="M923.123,316.81s-.649-.267-1.745-.586A46.2,46.2,0,0,0,916.7,315c-1.933-.4-4.324-.94-6.839-1.221a73.756,73.756,0,0,0-8.229-.521,69.527,69.527,0,0,0-18.3,2.36,67.463,67.463,0,0,0-17.847,7.791,68.977,68.977,0,0,0-14.915,12.534,71.035,71.035,0,0,0-10.276,15.338,68.568,68.568,0,0,0-5.187,14.225,46.782,46.782,0,0,0-1.007,4.709c-.163,1.173-.257,1.811-.267,1.818Z" fill="#211a72"/></g></g><path d="M860.011,349.145a87.133,87.133,0,0,1,8.377-22.6,22.6,22.6,0,0,0,8.571,2.766c4.852.306,7.944-1.273,7.992-4.157-.291-2.863-3.508-4.168-8.314-3.436a20.6,20.6,0,0,0-7.073,2.728,87.658,87.658,0,0,1,6.66-9.991,22.663,22.663,0,0,0,8.457,4.189c4.768.982,8.044-.156,8.484-3.005.1-2.881-2.9-4.616-7.759-4.557a21.688,21.688,0,0,0-8.145,2.058q1.494-1.884,3.089-3.689c1.933-2.162,3.977-4.244,6.1-6.232a22.837,22.837,0,0,0,7.943,5.167c4.615,1.523,8,.763,8.773-2.006.426-2.845-2.343-4.924-7.177-5.427a21.7,21.7,0,0,0-8.262,1.075,94.755,94.755,0,0,1,8.717-7.03,22.981,22.981,0,0,0,7.742,5.566c4.546,1.721,7.957,1.128,8.856-1.61.562-2.828-2.121-5.025-6.927-5.743a21.326,21.326,0,0,0-7.971.61c1.562-1.058,3.134-2.082,4.748-3.05.669-.392,1.388-.809,2.109-1.214a22.8,22.8,0,0,0,9.276-1.083c4.536-1.756,6.68-4.484,5.5-7.121-1.478-2.474-4.941-2.308-8.988.378a22.374,22.374,0,0,0-6.135,6.77,82.97,82.97,0,0,0-11.046,7.277,21.534,21.534,0,0,0,2.526-7.658c.448-4.845-1.048-7.975-3.928-8.089-2.877.211-4.268,3.394-3.671,8.214A23.081,23.081,0,0,0,892.034,297a100.138,100.138,0,0,0-10.084,9.172,22.262,22.262,0,0,0,1.457-8.752c-.4-4.841-2.4-7.673-5.257-7.308-2.794.715-3.634,4.081-2.211,8.734a23.051,23.051,0,0,0,5.143,8.242,93.265,93.265,0,0,0-8.321,10.272,23.175,23.175,0,0,0,1.8-9.689c-.385-4.848-2.391-7.683-5.251-7.3-2.8.694-3.626,4.07-2.207,8.71,1.323,4.341,4.959,8.078,5.449,8.568-1.371,1.968-2.644,3.987-3.842,6.059-.388.659-.753,1.336-1.12,2.009-.177.125-.285.212-.285.212s.048.027.128.069q-1.254,2.332-2.363,4.737a19.977,19.977,0,0,0-.2-6.843c-1.107-4.73-3.515-7.225-6.284-6.437-2.655,1.113-2.978,4.566-.889,8.956a22.791,22.791,0,0,0,6.094,7.215,88.057,88.057,0,0,0-4.82,15.3.529.529,0,0,0,1.034.222" fill="#aed144"/><path d="M833.971,371.771s-.465-.625-1.35-1.8c-.715-1.145-2.113-2.891-3.2-4.956a83.672,83.672,0,0,1-7.8-16.82,86.788,86.788,0,0,1-4.376-22.2,83.939,83.939,0,0,1,2.089-23.778,82.3,82.3,0,0,1,8.721-22.206,85.707,85.707,0,0,1,13.829-17.9,91.028,91.028,0,0,1,7.6-6.666,84.96,84.96,0,0,1,6.989-4.855,55.264,55.264,0,0,1,5.1-2.991c1.239-.68,2.023-1.01,2.023-1.01s.548.642,1.367,1.795c.722,1.148,2.127,2.9,3.224,4.969,1.208,2.092,2.769,4.664,4.07,7.478a93.151,93.151,0,0,1,3.794,9.356,85.589,85.589,0,0,1,4.351,22.192,83.354,83.354,0,0,1-10.962,45.963,86.576,86.576,0,0,1-13.839,17.889,84.328,84.328,0,0,1-14.509,11.545c-1.909,1.353-3.953,2.3-5.095,2.992-1.308.656-2.016,1.006-2.016,1.006" fill="#3a8931"/><path d="M866.487,328.594q-13.65,11.707-27.273,23.424l6.68-28.241a1.147,1.147,0,0,0,.476-.17q14.433-12.4,28.865-24.788c.933-.815-.464-2.123-1.389-1.325Q860.2,309.2,846.57,320.921l6.677-28.251a1.164,1.164,0,0,0,.49-.17q8.324-7.162,16.667-14.307c.93-.813-.474-2.131-1.388-1.33q-7.551,6.486-15.089,12.951l9.159-38.713-1.559-.358-8.957,37.878q-4.055-8.574-8.127-17.133c-.517-1.131-2.155-.1-1.61.993q4.5,9.557,9.037,19.1l-6.663,28.147c-.233-.5-.462-1.006-.7-1.5-1.76-3.727-3.54-7.464-5.3-11.2q-4.026-8.479-8.045-16.956c-.521-1.131-2.155-.107-1.621,1q7.485,15.813,14.971,31.624l-6.653,28.133q-.354-.745-.707-1.5-2.655-5.59-5.293-11.195-4.034-8.478-8.054-16.962c-.528-1.124-2.158-.1-1.621,1.006Q829.65,338,837.146,353.8l-1.919,8.131,1.552.379,1.751-7.43a1.085,1.085,0,0,0,.479-.167q14.436-12.4,28.862-24.8c.947-.8-.458-2.11-1.384-1.322" fill="#aacd44"/><g opacity="0.1"><g clip-path="url(#n)"><path d="M863.585,246.582c-.007,0-.791.33-2.03,1.006a58.905,58.905,0,0,0-5.108,2.985c-2.009,1.329-4.563,2.925-6.982,4.865a89.546,89.546,0,0,0-7.589,6.666A85.334,85.334,0,0,0,828.043,280a82.853,82.853,0,0,0-8.727,22.2,84.215,84.215,0,0,0-2.079,23.785,86.446,86.446,0,0,0,4.366,22.192,84.166,84.166,0,0,0,7.807,16.834c1.087,2.065,2.492,3.825,3.2,4.953.878,1.155,1.354,1.8,1.354,1.808Z" fill="#211a72"/></g></g><path d="M763.172,98.482a4.789,4.789,0,0,0-.682.07,9.42,9.42,0,0,0-14.046-8.117,12,12,0,0,0-22.2,2.486,7.541,7.541,0,0,0-1.625-.183,7.736,7.736,0,1,0,5.775,12.834,11.894,11.894,0,0,0,15.57-.549,9.352,9.352,0,0,0,13.118.934,4.861,4.861,0,1,0,4.094-7.475" fill="#e6fcfa"/><path d="M763.172,105.25A4.859,4.859,0,0,1,759.078,103a9.35,9.35,0,0,1-13.118-.936,11.888,11.888,0,0,1-15.57.549,7.694,7.694,0,0,1-13.359-3.618,7.7,7.7,0,0,0,13.359,6.579,11.894,11.894,0,0,0,15.57-.549,9.352,9.352,0,0,0,13.118.934,4.841,4.841,0,0,0,8.705-4.094,4.847,4.847,0,0,1-4.611,3.387" fill="#c8ebf3"/><path d="M663.269,145.152a2.526,2.526,0,0,1,.368.039,5.141,5.141,0,0,1,5.14-5.06,5.064,5.064,0,0,1,2.473.659,6.507,6.507,0,0,1,12.036,1.347,4.268,4.268,0,0,1,.884-.1A4.193,4.193,0,1,1,681.036,149a6.448,6.448,0,0,1-8.442-.3,5.068,5.068,0,0,1-7.11.508,2.635,2.635,0,1,1-2.215-4.054" fill="#e6fcfa"/><path d="M663.269,148.82a2.621,2.621,0,0,0,2.215-1.217,5.072,5.072,0,0,0,7.11-.511,6.451,6.451,0,0,0,8.442.3,4.174,4.174,0,0,0,7.243-1.962,4.04,4.04,0,0,1,.082.8A4.177,4.177,0,0,1,681.036,149,6.468,6.468,0,0,1,677,150.427a6.534,6.534,0,0,1-4.405-1.728,5.068,5.068,0,0,1-7.11.508,2.633,2.633,0,0,1-4.855-1.418,2.7,2.7,0,0,1,.137-.805,2.629,2.629,0,0,0,2.5,1.836" fill="#c8ebf3"/><path d="M647.2,92.014a2.65,2.65,0,0,0-.412.043,5.713,5.713,0,0,0-8.518-4.925A7.28,7.28,0,0,0,624.8,88.641a4.576,4.576,0,0,0-.989-.11,4.691,4.691,0,1,0,3.5,7.784,7.22,7.22,0,0,0,9.446-.334,5.676,5.676,0,0,0,7.957.568,2.948,2.948,0,1,0,2.479-4.535" fill="#e6fcfa"/><path d="M647.2,96.119a2.94,2.94,0,0,1-2.479-1.367,5.67,5.67,0,0,1-7.957-.567,7.212,7.212,0,0,1-9.446.333,4.665,4.665,0,0,1-8.1-2.193,4.5,4.5,0,0,0-.091.9,4.673,4.673,0,0,0,8.192,3.094,7.222,7.222,0,0,0,9.446-.333,5.677,5.677,0,0,0,7.957.567,2.936,2.936,0,0,0,5.278-2.483,2.942,2.942,0,0,1-2.8,2.053" fill="#c8ebf3"/></g></g></g></svg>