<svg xmlns="http://www.w3.org/2000/svg" xmlns:xlink="http://www.w3.org/1999/xlink" width="500.692" height="500" viewBox="0 0 500.692 500">
  <defs>
    <clipPath id="clip-path">
      <rect id="Rectangle_71" data-name="Rectangle 71" width="289.885" height="290.543" fill="none"/>
    </clipPath>
    <clipPath id="clip-path-3">
      <path id="Tracé_61" data-name="Tracé 61" d="M214.8,147.579l-1.421,1.2-1.125,1.281-.487-.733-1.388-.716-2.1.248-1.388,1.826-.3,2.3.468,2.374.078.79.734,1.75,1.433,1.063,1.811.461,1.528-.411,2.458-1.754,2.224-1.108,2.294.415,2.608.693,1.8.409s1.85-1.008,2.019-1.095a20.15,20.15,0,0,0,1.369-1.6l.646-1.76-.485-1.538-1.4-.935-1.444.216.015-.706-.526-1.183-1.277-.751-1.615.252-1.127,1.137-.89-1.722s-2.36-.811-2.447-.854a.062.062,0,0,0-.021,0c-.229,0-2.043.455-2.043.455" transform="translate(-206.594 -147.124)" fill="none"/>
    </clipPath>
    <linearGradient id="linear-gradient" x1="-7.375" y1="12.924" x2="-7.34" y2="12.924" gradientUnits="objectBoundingBox">
      <stop offset="0" stop-color="#8ab430"/>
      <stop offset="1" stop-color="#268133"/>
    </linearGradient>
    <clipPath id="clip-path-4">
      <path id="Tracé_62" data-name="Tracé 62" d="M96.458,205.456l-1.149,3.025-.354.86s-.785-.857-.95-1.034a14.641,14.641,0,0,1-.773-1.325l-.555,1.828-.6,2.941-.272,3.041-1.1-.6-.912-.733-1.054-1.7s.693,3.721.644,3.812,1.829,5.662,1.847,5.681,2.016,3.419,2.043,3.5,3.563,1.193,3.563,1.193l4.6-.135s2.475-2.906,2.571-3.242.927-1.641.991-1.878,1.212-4.472,1.212-4.472v-1.589l-1.212,1.918-1.69.85.4-1.824.222-2.34-1.139.809-1.8.862,1.041-2.522.495-2.62-.023-2.518-1.361,1.477-1.112.959-.8-.959-.963-2.449-.677-2.3-.218-1.223Z" transform="translate(-88.731 -202.741)" fill="none"/>
    </clipPath>
    <linearGradient id="linear-gradient-2" x1="-2.964" y1="4.904" x2="-2.929" y2="4.904" xlink:href="#linear-gradient"/>
    <clipPath id="clip-path-5">
      <path id="Tracé_63" data-name="Tracé 63" d="M134.456,243.24l-1.149,3.025-.353.859s-.786-.856-.95-1.034a14.485,14.485,0,0,1-.774-1.325l-.555,1.828-.6,2.941-.272,3.041-1.1-.6-.913-.733-1.054-1.705s.693,3.721.644,3.812,1.829,5.662,1.848,5.681,2.015,3.42,2.043,3.5,3.564,1.193,3.564,1.193l4.6-.135s2.475-2.906,2.571-3.242.928-1.642.991-1.879,1.212-4.471,1.212-4.471V252.4l-1.212,1.917-1.69.851.4-1.824L141.92,251l-1.14.811-1.8.861,1.041-2.522.494-2.619-.022-2.519-1.361,1.477-1.112.959-.8-.959-.962-2.448-.677-2.3-.217-1.224Z" transform="translate(-126.729 -240.524)" fill="none"/>
    </clipPath>
    <linearGradient id="linear-gradient-3" x1="-4.283" y1="3.79" x2="-4.249" y2="3.79" xlink:href="#linear-gradient"/>
    <clipPath id="clip-path-6">
      <path id="Tracé_64" data-name="Tracé 64" d="M230.061,146.981l-1.474,4.028-.454,1.145s-1.008-1.14-1.22-1.376a19.807,19.807,0,0,1-.993-1.765l-.711,2.435-.774,3.918-.349,4.05-1.416-.8-1.171-.977-1.352-2.27s.889,4.955.825,5.077,2.347,7.541,2.371,7.567,2.585,4.555,2.621,4.658,4.573,1.589,4.573,1.589l5.907-.18s3.175-3.87,3.3-4.319,1.19-2.186,1.271-2.5,1.555-5.956,1.555-5.956v-2.116l-1.555,2.554-2.169,1.133.507-2.43.285-3.117-1.461,1.078-2.309,1.148,1.335-3.36.634-3.489-.028-3.354-1.746,1.967-1.426,1.277-1.022-1.277-1.235-3.261-.869-3.059-.28-1.631Z" transform="translate(-220.147 -143.363)" fill="none"/>
    </clipPath>
    <linearGradient id="linear-gradient-4" x1="-5.779" y1="5.04" x2="-5.752" y2="5.04" xlink:href="#linear-gradient"/>
    <clipPath id="clip-path-7">
      <path id="Tracé_65" data-name="Tracé 65" d="M289.537,182.884l-1.435,4-.442,1.137s-.98-1.132-1.187-1.366a19.524,19.524,0,0,1-.966-1.75l-.692,2.415-.754,3.885-.34,4.018-1.378-.8-1.14-.969-1.317-2.252s.865,4.915.8,5.036,2.285,7.48,2.308,7.5,2.517,4.518,2.551,4.622S290,209.938,290,209.938l5.751-.178s3.091-3.84,3.211-4.284,1.159-2.168,1.238-2.48,1.513-5.908,1.513-5.908v-2.1l-1.513,2.534-2.112,1.123.494-2.409.277-3.093-1.423,1.07-2.247,1.138,1.3-3.333.618-3.461-.029-3.326-1.7,1.951-1.388,1.268-1-1.268-1.2-3.234-.845-3.035-.272-1.616Z" transform="translate(-279.886 -179.296)" fill="none"/>
    </clipPath>
    <linearGradient id="linear-gradient-5" x1="-7.543" y1="4.285" x2="-7.516" y2="4.285" xlink:href="#linear-gradient"/>
    <clipPath id="clip-path-8">
      <path id="Tracé_66" data-name="Tracé 66" d="M86.831,79.97,85.357,84,84.9,85.144S83.9,84,83.683,83.767A19.659,19.659,0,0,1,82.691,82l-.711,2.435L81.2,88.353,80.856,92.4l-1.416-.8-1.171-.977-1.352-2.271s.889,4.956.825,5.078,2.347,7.54,2.37,7.567,2.586,4.555,2.621,4.659,4.572,1.588,4.572,1.588l5.907-.18s3.175-3.87,3.3-4.319,1.19-2.186,1.27-2.5l1.555-5.956V92.173l-1.555,2.554-2.169,1.132.508-2.428.284-3.118-1.461,1.079-2.309,1.148,1.336-3.36.634-3.489-.029-3.354L92.831,84.3,91.4,85.581,90.383,84.3l-1.235-3.261-.869-3.06L88,76.352Z" transform="translate(-76.917 -76.352)" fill="none"/>
    </clipPath>
    <linearGradient id="linear-gradient-6" x1="-1.94" y1="6.531" x2="-1.914" y2="6.531" xlink:href="#linear-gradient"/>
    <clipPath id="clip-path-9">
      <path id="Tracé_67" data-name="Tracé 67" d="M172.4,37.187l-1.475,4.028-.454,1.145s-1.007-1.14-1.22-1.376a19.763,19.763,0,0,1-.992-1.765l-.712,2.435-.774,3.917-.348,4.051-1.416-.8-1.171-.977-1.352-2.27s.889,4.955.825,5.077,2.347,7.54,2.37,7.567,2.586,4.555,2.621,4.659,4.571,1.589,4.571,1.589l5.907-.18s3.176-3.871,3.3-4.319,1.19-2.187,1.271-2.5,1.555-5.957,1.555-5.957V49.391l-1.555,2.555-2.169,1.132.507-2.429.285-3.118-1.462,1.079L178.2,49.757l1.337-3.36.634-3.488-.029-3.355L178.4,41.521,176.969,42.8l-1.022-1.277-1.235-3.261-.869-3.059-.279-1.63Z" transform="translate(-162.481 -33.57)" fill="none"/>
    </clipPath>
    <linearGradient id="linear-gradient-7" x1="-4.233" y1="7.483" x2="-4.207" y2="7.483" xlink:href="#linear-gradient"/>
    <clipPath id="clip-path-10">
      <path id="Tracé_68" data-name="Tracé 68" d="M261.967,218.556l-1.778,1.506-1.407,1.6-.611-.919-1.737-.9-2.628.311-1.736,2.285-.382,2.877.585,2.971.1.988.919,2.191,1.792,1.331,2.268.576,1.913-.514,3.078-2.2,2.783-1.388,2.873.52,3.265.869,2.249.511s2.316-1.262,2.527-1.37a25.339,25.339,0,0,0,1.715-2l.809-2.2-.607-1.926-1.75-1.171-1.808.272.019-.885-.659-1.482-1.6-.94-2.021.314-1.412,1.425-1.114-2.155s-2.955-1.015-3.064-1.07a.087.087,0,0,0-.025,0c-.286,0-2.558.57-2.558.57" transform="translate(-251.689 -217.986)" fill="none"/>
    </clipPath>
    <linearGradient id="linear-gradient-8" x1="-7.176" y1="7.015" x2="-7.148" y2="7.015" gradientUnits="objectBoundingBox">
      <stop offset="0" stop-color="#6ba178"/>
      <stop offset="1" stop-color="#00867f"/>
    </linearGradient>
    <clipPath id="clip-path-11">
      <path id="Tracé_69" data-name="Tracé 69" d="M112.586,261.563l-1.779,1.506-1.408,1.6-.611-.918-1.736-.9-2.628.31-1.737,2.286-.382,2.876.586,2.971.1.988.919,2.191,1.792,1.331,2.268.577,1.912-.513,3.078-2.2,2.784-1.389,2.873.52,3.265.869,2.249.51s2.316-1.262,2.528-1.369a25.613,25.613,0,0,0,1.714-2l.81-2.2-.607-1.926-1.75-1.17-1.807.272.018-.885-.659-1.482-1.6-.941-2.02.315-1.412,1.425-1.114-2.156s-2.955-1.015-3.064-1.069a.065.065,0,0,0-.025,0c-.286,0-2.557.569-2.557.569" transform="translate(-102.306 -260.994)" fill="none"/>
    </clipPath>
    <linearGradient id="linear-gradient-9" x1="-2.908" y1="5.001" x2="-2.879" y2="5.001" xlink:href="#linear-gradient"/>
    <clipPath id="clip-path-12">
      <path id="Tracé_70" data-name="Tracé 70" d="M115.461,231.375l-1.779,1.506-1.407,1.6-.611-.919-1.737-.9-2.627.31-1.737,2.286-.382,2.876.586,2.971.1.988.919,2.191,1.793,1.332,2.267.576,1.913-.514,3.078-2.2,2.784-1.388,2.873.52,3.265.868,2.248.511s2.316-1.262,2.528-1.369a25.473,25.473,0,0,0,1.714-2l.809-2.2-.607-1.926-1.751-1.171-1.807.272.018-.885-.658-1.482-1.6-.941-2.022.315-1.411,1.425-1.114-2.156s-2.955-1.015-3.063-1.069a.066.066,0,0,0-.026,0c-.287,0-2.557.57-2.557.57" transform="translate(-105.182 -230.805)" fill="none"/>
    </clipPath>
    <linearGradient id="linear-gradient-10" x1="-2.99" y1="6.414" x2="-2.962" y2="6.414" xlink:href="#linear-gradient-8"/>
    <clipPath id="clip-path-13">
      <path id="Tracé_71" data-name="Tracé 71" d="M81.571,118.877l-1.778,1.5-1.408,1.6-.611-.918-1.736-.9-2.628.31-1.737,2.286-.381,2.876.585,2.971.1.989.919,2.19,1.792,1.332,2.268.576,1.912-.514,3.078-2.2,2.784-1.388,2.873.52,3.265.868,2.25.511s2.316-1.262,2.527-1.37a25.472,25.472,0,0,0,1.714-2l.81-2.2L97.562,124l-1.75-1.171L94,123.1l.018-.885-.659-1.482-1.6-.94-2.021.314-1.412,1.425-1.114-2.156s-2.955-1.015-3.064-1.069a.065.065,0,0,0-.025,0c-.286,0-2.557.57-2.557.57" transform="translate(-71.293 -118.307)" fill="none"/>
    </clipPath>
    <linearGradient id="linear-gradient-11" x1="-2.022" y1="11.681" x2="-1.993" y2="11.681" xlink:href="#linear-gradient"/>
    <clipPath id="clip-path-14">
      <path id="Tracé_72" data-name="Tracé 72" d="M108.171,102.092l-1.779,1.506-1.408,1.6-.61-.918-1.737-.9-2.627.31-1.737,2.286-.383,2.876.587,2.971.1.989.92,2.191,1.793,1.331,2.267.577,1.912-.513,3.078-2.2,2.784-1.388,2.873.52,3.265.868,2.248.51s2.316-1.262,2.529-1.369a25.594,25.594,0,0,0,1.713-2l.81-2.2-.607-1.925-1.751-1.171-1.807.272.017-.885-.658-1.482-1.6-.94-2.021.314-1.411,1.425-1.114-2.155s-2.956-1.015-3.064-1.069a.067.067,0,0,0-.026,0c-.286,0-2.557.569-2.557.569" transform="translate(-97.891 -101.523)" fill="none"/>
    </clipPath>
    <linearGradient id="linear-gradient-12" x1="-2.782" y1="12.467" x2="-2.753" y2="12.467" xlink:href="#linear-gradient"/>
    <clipPath id="clip-path-15">
      <path id="Tracé_73" data-name="Tracé 73" d="M161.651,71.8l-1.78,1.506-1.407,1.6-.61-.918-1.737-.9-2.628.31-1.737,2.286-.382,2.876.587,2.971.1.988.92,2.191,1.793,1.331,2.267.577,1.913-.514,3.078-2.2,2.784-1.388,2.873.52,3.265.869,2.248.51s2.316-1.262,2.527-1.369a25.165,25.165,0,0,0,1.715-2l.809-2.2-.607-1.926-1.75-1.171-1.807.272.018-.885-.658-1.482-1.6-.94-2.022.314-1.412,1.425L167.3,72.3s-2.956-1.015-3.065-1.069a.06.06,0,0,0-.025,0c-.286,0-2.557.569-2.557.569" transform="translate(-151.371 -71.23)" fill="none"/>
    </clipPath>
    <linearGradient id="linear-gradient-13" x1="-4.31" y1="13.885" x2="-4.281" y2="13.885" xlink:href="#linear-gradient"/>
    <clipPath id="clip-path-16">
      <path id="Tracé_74" data-name="Tracé 74" d="M259.794,192.747l-2.707,2.987s-.718-.769-.919-1.011a3.33,3.33,0,0,0-1.594-.479c-.318.017-2.05.446-2.05.446l-1.6,1.121-1.224-.157-1.633-.588-2.267,1.152-1.212,1.86-.141,1.586-1.083-.385L241.9,200.54l.757,2.529,1.285,2.6L246.3,207.2a7.328,7.328,0,0,0,1.763,0l1.128-.147,6.683,1.407s7.144.543,7.328.543,4.365-1.235,4.365-1.235l1.582-1.888-.094-1.618-.8-2.709.992-1.34.6-2.708-.851-2.093-2.187-.55L265.69,195.9l-.793-2.648-1.88-1.23Z" transform="translate(-241.904 -192.025)" fill="none"/>
    </clipPath>
    <linearGradient id="linear-gradient-14" x1="-6.181" y1="6.351" x2="-6.156" y2="6.351" xlink:href="#linear-gradient"/>
    <clipPath id="clip-path-17">
      <path id="Tracé_75" data-name="Tracé 75" d="M140.752,210.151l-2.707,2.987s-.718-.768-.92-1.011a3.323,3.323,0,0,0-1.593-.478c-.318.016-2.05.445-2.05.445l-1.6,1.122-1.224-.157-1.633-.589-2.267,1.152-1.213,1.861-.141,1.585-1.082-.385-1.456,1.262.758,2.53,1.284,2.595,2.355,1.531a7.288,7.288,0,0,0,1.763,0l1.129-.147,6.682,1.407s7.144.544,7.328.544,4.365-1.235,4.365-1.235l1.582-1.887-.093-1.618-.8-2.709.992-1.34.6-2.708-.851-2.094-2.187-.55-1.115,1.046-.793-2.649-1.88-1.23Z" transform="translate(-122.861 -209.429)" fill="none"/>
    </clipPath>
    <linearGradient id="linear-gradient-15" x1="-3.117" y1="5.73" x2="-3.091" y2="5.73" xlink:href="#linear-gradient"/>
    <clipPath id="clip-path-18">
      <path id="Tracé_76" data-name="Tracé 76" d="M258.555,163.589l-2.707,2.987s-.717-.768-.919-1.011a3.33,3.33,0,0,0-1.593-.479c-.318.017-2.051.446-2.051.446l-1.6,1.121-1.224-.157-1.633-.588-2.267,1.152-1.213,1.86-.141,1.585-1.082-.385-1.456,1.262.757,2.529,1.285,2.595,2.355,1.531a7.322,7.322,0,0,0,1.762,0l1.129-.147,6.682,1.407s7.144.543,7.328.543,4.366-1.236,4.366-1.236l1.582-1.887-.094-1.619-.8-2.709.993-1.34.6-2.708-.85-2.093-2.187-.55-1.116,1.045-.793-2.648-1.881-1.232Z" transform="translate(-240.665 -162.866)" fill="none"/>
    </clipPath>
    <linearGradient id="linear-gradient-16" x1="-6.149" y1="7.391" x2="-6.124" y2="7.391" xlink:href="#linear-gradient"/>
    <clipPath id="clip-path-19">
      <path id="Tracé_77" data-name="Tracé 77" d="M115.111,69.1,112.4,72.091s-.718-.768-.919-1.011a3.336,3.336,0,0,0-1.593-.48c-.318.017-2.05.447-2.05.447l-1.6,1.121-1.224-.158-1.633-.588-2.267,1.152L99.9,74.436l-.14,1.585-1.083-.385L97.22,76.9l.757,2.529,1.285,2.595,2.355,1.531a7.289,7.289,0,0,0,1.763,0l1.128-.147,6.682,1.407s7.144.543,7.329.543,4.365-1.235,4.365-1.235l1.582-1.887-.094-1.618-.8-2.709.993-1.34.6-2.709-.851-2.093-2.187-.549-1.114,1.045-.793-2.648-1.881-1.23Z" transform="translate(-97.22 -68.383)" fill="none"/>
    </clipPath>
    <linearGradient id="linear-gradient-17" x1="-2.457" y1="10.76" x2="-2.431" y2="10.76" xlink:href="#linear-gradient"/>
    <clipPath id="clip-path-20">
      <path id="Tracé_78" data-name="Tracé 78" d="M194.987,58.389l-2.707,2.987s-.718-.768-.92-1.011a3.318,3.318,0,0,0-1.593-.479c-.318.017-2.05.446-2.05.446l-1.6,1.121-1.225-.157-1.633-.588-2.267,1.152-1.213,1.861-.142,1.585-1.082-.385L177.1,66.182l.756,2.53,1.285,2.595,2.355,1.531a7.323,7.323,0,0,0,1.762,0l1.129-.147,6.683,1.406s7.143.544,7.328.544S202.76,73.4,202.76,73.4l1.582-1.887-.094-1.618-.8-2.709.992-1.34.6-2.708-.851-2.093L202,60.5l-1.116,1.045-.792-2.648-1.881-1.231Z" transform="translate(-177.097 -57.666)" fill="none"/>
    </clipPath>
    <linearGradient id="linear-gradient-18" x1="-4.513" y1="11.142" x2="-4.487" y2="11.142" xlink:href="#linear-gradient"/>
    <clipPath id="clip-path-21">
      <path id="Tracé_79" data-name="Tracé 79" d="M277.433,133.37l-2.707,2.987s-.718-.768-.919-1.011a3.333,3.333,0,0,0-1.594-.479c-.318.017-2.05.446-2.05.446l-1.6,1.121-1.224-.157-1.633-.588-2.267,1.153-1.213,1.86-.14,1.584L261,139.9l-1.456,1.262.757,2.529,1.285,2.595,2.355,1.532a7.329,7.329,0,0,0,1.763,0l1.128-.148,6.683,1.407s7.144.543,7.328.543,4.365-1.235,4.365-1.235l1.582-1.887-.093-1.618-.805-2.709.993-1.34.6-2.708-.851-2.093-2.187-.55-1.115,1.045-.793-2.648-1.881-1.231Z" transform="translate(-259.543 -132.647)" fill="none"/>
    </clipPath>
    <linearGradient id="linear-gradient-19" x1="-6.635" y1="8.468" x2="-6.61" y2="8.468" xlink:href="#linear-gradient"/>
    <clipPath id="clip-path-22">
      <path id="Tracé_80" data-name="Tracé 80" d="M247.447,124.753l-1.475,4.029-.453,1.145s-1.008-1.14-1.22-1.377a19.691,19.691,0,0,1-.993-1.765l-.711,2.435-.774,3.917-.348,4.051-1.417-.8-1.171-.977-1.353-2.271s.889,4.955.826,5.077,2.347,7.54,2.37,7.567,2.585,4.554,2.621,4.658,4.572,1.589,4.572,1.589l5.907-.18s3.176-3.871,3.3-4.319,1.19-2.186,1.271-2.5,1.555-5.956,1.555-5.956v-2.116l-1.555,2.553-2.169,1.133.507-2.429.285-3.117-1.462,1.078-2.309,1.148,1.337-3.36.634-3.489-.029-3.354-1.746,1.967-1.426,1.277L251,129.087l-1.235-3.262-.869-3.059-.28-1.63Z" transform="translate(-237.533 -121.136)" fill="none"/>
    </clipPath>
    <linearGradient id="linear-gradient-20" x1="-6.245" y1="5.534" x2="-6.218" y2="5.534" xlink:href="#linear-gradient-8"/>
    <clipPath id="clip-path-23">
      <path id="Tracé_81" data-name="Tracé 81" d="M277.079,154.725l-1.475,4.028-.454,1.146s-1.007-1.14-1.219-1.376a19.594,19.594,0,0,1-.993-1.766l-.711,2.435-.775,3.917-.348,4.051-1.417-.8-1.171-.977-1.353-2.271s.889,4.955.826,5.077,2.347,7.54,2.371,7.567,2.584,4.555,2.621,4.659S277.554,182,277.554,182l5.907-.18s3.175-3.871,3.3-4.319,1.19-2.186,1.271-2.5,1.555-5.957,1.555-5.957v-2.116l-1.555,2.555-2.169,1.132.508-2.429.285-3.118-1.462,1.079-2.309,1.148,1.335-3.36.634-3.488-.029-3.355-1.747,1.967-1.426,1.277-1.021-1.277L279.4,155.8l-.869-3.059-.279-1.63Z" transform="translate(-267.164 -151.108)" fill="none"/>
    </clipPath>
    <linearGradient id="linear-gradient-21" x1="-7.039" y1="4.867" x2="-7.012" y2="4.867" xlink:href="#linear-gradient-8"/>
    <clipPath id="clip-path-24">
      <path id="Tracé_82" data-name="Tracé 82" d="M117.909,179.969,116.434,184l-.455,1.145s-1.007-1.14-1.219-1.376a19.771,19.771,0,0,1-.992-1.765l-.712,2.435-.774,3.916-.348,4.051-1.416-.8-1.171-.977-1.353-2.271s.889,4.955.826,5.077,2.347,7.54,2.37,7.567,2.586,4.555,2.621,4.659,4.571,1.588,4.571,1.588l5.907-.18s3.176-3.871,3.3-4.319,1.19-2.186,1.271-2.5,1.555-5.956,1.555-5.956v-2.116l-1.555,2.554-2.169,1.132.507-2.429.285-3.117-1.462,1.078-2.309,1.148,1.337-3.36.634-3.489-.029-3.354-1.746,1.967-1.427,1.277L121.46,184.3l-1.235-3.261-.869-3.06-.279-1.63Z" transform="translate(-107.994 -176.351)" fill="none"/>
    </clipPath>
    <linearGradient id="linear-gradient-22" x1="-2.773" y1="4.305" x2="-2.746" y2="4.305" xlink:href="#linear-gradient-8"/>
    <clipPath id="clip-path-25">
      <path id="Tracé_83" data-name="Tracé 83" d="M122.663,74.781l-1.474,4.028-.454,1.146s-1.008-1.141-1.22-1.377a19.7,19.7,0,0,1-.993-1.765l-.711,2.435-.774,3.917-.348,4.051-1.417-.8-1.171-.977-1.353-2.27s.889,4.956.826,5.077,2.347,7.541,2.37,7.567,2.585,4.555,2.621,4.659,4.573,1.589,4.573,1.589l5.907-.18s3.175-3.871,3.3-4.319,1.19-2.187,1.271-2.5,1.555-5.957,1.555-5.957V86.985l-1.555,2.555-2.169,1.132.508-2.429.284-3.118L130.778,86.2l-2.309,1.148,1.336-3.36.634-3.489-.029-3.355-1.746,1.967-1.426,1.278-1.022-1.278-1.236-3.261-.869-3.06-.28-1.63Z" transform="translate(-112.749 -71.164)" fill="none"/>
    </clipPath>
    <linearGradient id="linear-gradient-23" x1="-2.901" y1="6.646" x2="-2.874" y2="6.646" xlink:href="#linear-gradient-8"/>
    <clipPath id="clip-path-26">
      <path id="Tracé_84" data-name="Tracé 84" d="M154.24,42.412l-1.475,4.028-.454,1.146s-1.007-1.141-1.22-1.377a19.656,19.656,0,0,1-.992-1.765l-.711,2.435-.775,3.916-.348,4.051-1.416-.8-1.171-.977-1.352-2.271s.889,4.956.825,5.077,2.347,7.541,2.37,7.567,2.586,4.555,2.621,4.659,4.571,1.588,4.571,1.588l5.907-.18s3.176-3.871,3.3-4.319,1.19-2.186,1.27-2.5,1.555-5.956,1.555-5.956V54.615l-1.555,2.554L163.024,58.3l.506-2.429.285-3.117-1.461,1.079-2.309,1.148,1.337-3.36.634-3.489-.029-3.354-1.746,1.967-1.426,1.277-1.022-1.277-1.235-3.261-.868-3.06-.28-1.63Z" transform="translate(-144.326 -38.794)" fill="none"/>
    </clipPath>
    <linearGradient id="linear-gradient-24" x1="-3.747" y1="7.367" x2="-3.72" y2="7.367" xlink:href="#linear-gradient-8"/>
    <clipPath id="clip-path-27">
      <path id="Tracé_85" data-name="Tracé 85" d="M247,183.415l-1.1.928-.867.988-.376-.566-1.07-.552-1.62.191-1.07,1.409-.235,1.772.361,1.83.06.61.567,1.35,1.1.82,1.4.355,1.178-.316,1.9-1.353,1.716-.855,1.769.321,2.012.535,1.386.314s1.426-.777,1.558-.843a15.784,15.784,0,0,0,1.056-1.235l.5-1.358-.375-1.186-1.079-.721-1.114.168.011-.545-.406-.914-.984-.579-1.246.194-.87.878-.687-1.327s-1.821-.626-1.888-.66a.039.039,0,0,0-.016,0c-.174,0-1.575.352-1.575.352" transform="translate(-240.665 -183.063)" fill="none"/>
    </clipPath>
    <linearGradient id="linear-gradient-25" x1="-11.143" y1="14.008" x2="-11.097" y2="14.008" xlink:href="#linear-gradient"/>
    <clipPath id="clip-path-28">
      <path id="Tracé_86" data-name="Tracé 86" d="M276.974,101.021l-1.779,1.506-1.408,1.6-.61-.918-1.737-.9-2.627.31-1.737,2.286-.383,2.876.587,2.971.1.989.92,2.19,1.793,1.331,2.268.577,1.911-.514,3.078-2.2,2.784-1.388,2.873.52,3.265.868,2.248.51s2.317-1.262,2.529-1.369a25.6,25.6,0,0,0,1.713-2l.81-2.2-.607-1.926-1.751-1.17-1.807.272.017-.885-.658-1.482-1.6-.94-2.021.314-1.411,1.426-1.114-2.156s-2.956-1.015-3.064-1.069a.067.067,0,0,0-.026,0c-.286,0-2.557.569-2.557.569" transform="translate(-266.694 -100.452)" fill="none"/>
    </clipPath>
    <linearGradient id="linear-gradient-26" x1="-7.605" y1="12.517" x2="-7.576" y2="12.517" xlink:href="#linear-gradient-8"/>
    <clipPath id="clip-path-29">
      <path id="Tracé_87" data-name="Tracé 87" d="M247.213,101.249l-2.708,2.987s-.717-.769-.919-1.011a3.322,3.322,0,0,0-1.593-.48c-.318.017-2.05.446-2.05.446l-1.6,1.122-1.224-.157-1.633-.589-2.267,1.153L232,106.58l-.141,1.585-1.083-.385-1.456,1.262.757,2.53,1.285,2.6,2.355,1.531a7.37,7.37,0,0,0,1.763,0l1.128-.148,6.683,1.407s7.144.544,7.328.544,4.365-1.236,4.365-1.236l1.582-1.887-.094-1.618-.8-2.709.992-1.339.6-2.709-.851-2.092-2.187-.55-1.115,1.045-.793-2.648-1.88-1.231Z" transform="translate(-229.322 -100.526)" fill="none"/>
    </clipPath>
    <linearGradient id="linear-gradient-27" x1="-5.857" y1="9.614" x2="-5.832" y2="9.614" xlink:href="#linear-gradient"/>
    <clipPath id="clip-path-30">
      <path id="Tracé_88" data-name="Tracé 88" d="M298.291,105.075l-1.475,4.028-.454,1.145s-1.007-1.14-1.219-1.376a19.694,19.694,0,0,1-.993-1.765l-.711,2.435-.774,3.918-.349,4.051-1.417-.8-1.171-.977-1.353-2.27s.889,4.955.826,5.077,2.347,7.54,2.371,7.567,2.584,4.555,2.621,4.658,4.572,1.589,4.572,1.589l5.907-.179s3.175-3.871,3.3-4.319,1.19-2.187,1.272-2.5,1.554-5.956,1.554-5.956v-2.116l-1.554,2.555-2.17,1.132.508-2.429.285-3.118L306.4,116.5l-2.309,1.148,1.335-3.36.634-3.488-.029-3.355-1.747,1.967-1.426,1.277-1.022-1.277-1.235-3.261-.869-3.059-.279-1.63Z" transform="translate(-288.376 -101.458)" fill="none"/>
    </clipPath>
    <linearGradient id="linear-gradient-28" x1="-7.607" y1="5.972" x2="-7.58" y2="5.972" xlink:href="#linear-gradient"/>
    <clipPath id="clip-path-31">
      <path id="Tracé_89" data-name="Tracé 89" d="M92.761,184.5l-2.708,2.986s-.716-.768-.919-1.011A3.321,3.321,0,0,0,87.54,186c-.318.017-2.05.446-2.05.446l-1.6,1.122-1.224-.157-1.633-.589-2.267,1.152-1.213,1.86-.141,1.585-1.082-.384L74.87,192.3l.758,2.529,1.285,2.6,2.354,1.53a7.288,7.288,0,0,0,1.763,0l1.129-.147,6.681,1.407s7.144.543,7.328.543,4.366-1.235,4.366-1.235l1.582-1.888-.094-1.618-.8-2.709.992-1.34.6-2.708-.85-2.093-2.187-.55-1.116,1.045-.793-2.648-1.88-1.23Z" transform="translate(-74.87 -183.78)" fill="none"/>
    </clipPath>
    <linearGradient id="linear-gradient-29" x1="-1.881" y1="6.645" x2="-1.856" y2="6.645" xlink:href="#linear-gradient"/>
  </defs>
  <g id="Groupe_158" data-name="Groupe 158" transform="translate(-1283 -74)">
    <rect id="Rectangle_70" data-name="Rectangle 70" width="500" height="500" transform="translate(1283 74)" fill="rgba(232,252,235,0.68)"/>
    <path id="Tracé_93" data-name="Tracé 93" d="M224.976,250.128l22.055,72.141-38.7,21.131s-19.984,97.3-22.528,100.508c-1.226,1.544-28.582,48.332-28.582,48.332S88.443,514.9,86.832,515.881C85,516.992,39.288,538.542,39.288,538.542L-8.39,587.815s-71.266,6.1-71.778,5.452c-2.543-3.2,1.885-133.011,0-138.005s0-111.862,0-111.862V250.128H224.976Z" transform="translate(1702.686 824.128) rotate(180)" fill="#bbefa5"/>
    <g id="Groupe_94" data-name="Groupe 94" transform="translate(1482.549 273.457)">
      <path id="Tracé_53" data-name="Tracé 53" d="M121.184,58.695l-35.8,23.714L66.318,114.956l-6.975,36.733,7.9,46.962,8.095,15.817,10.039,11.616,20.745,18.81,9.756,3.888,39.16,10.718,48.442-4.123,37.2-29.758,21.353-36.182,5.15-39.688L259.936,119.9l-16.929-32.84L206.273,60.09,163.264,48.466Z" transform="translate(-12.344 -10.082)" fill="#008fc7"/>
      <path id="Tracé_54" data-name="Tracé 54" d="M148.582,69.164v5.58l5.115,4.185,4.65,6.509h4.185l8.269-5.58,5.215-2.557h8.834l6.045-3.952-3.72-7.44-5.347-5.115-9.067,2.79-10.229-2.79Z" transform="translate(-30.907 -12.646)" fill="#3aaba1"/>
      <g id="Groupe_95" data-name="Groupe 95">
        <g id="Groupe_94-2" data-name="Groupe 94" clip-path="url(#clip-path)">
          <path id="Tracé_55" data-name="Tracé 55" d="M217.817,104.816c-.465,1.395,3.719,7.44,3.719,7.44h11.159s6.044-.931,6.044,0,4.65,4.649,4.65,4.649l9.3-3.719,9.3-5.58,5.58,9.3,4.185,6.51-3.721,6.509h-6.974l-6.974-6.509-9.318,2.324h-8.351l-4.65-5.115-8.835,1.4-9.3,2.789-11.624,5.115V144.8l6.974,9.219,16.275,9.844,8.833,6.044,2.791,15.81L240.6,198.74l7.439,13.019,6.51,9.3h5.58l5.579-9.3,1.86-10.229,4.185-8.835L275.937,182v-6.044l8.835-4.65,3.255-5.115-6.51-7.936-11.159-10.663-6.044-7.9-3.719-4.65,10.228,3.72,7.9-6.044,9.3,2.789,4.434.4-2.85-11.735-8.095-19.356-8.835-13.484L260.594,78.466l-13.02-9.452-10.229,3.254-.93,13.019s7.9-.465,7.9-1.86,3.255-8.6,3.255-8.6l1.86,12.322-5.58,3.72-2.343-2.637-.628,2.508-1.671,2.717-3.97,1.672-3.762,2.3-2.507-2.717-3.135,1.672.418,3.552,2.507,1.881-1.879,1.463-7.524-1.254Z" transform="translate(-42.021 -14.356)" fill="#3aaba1"/>
          <path id="Tracé_56" data-name="Tracé 56" d="M109.633,185.647l2.09,6.478.836,4.179,5.016,3.761,10.03,5.225,10.24,6.059-1.045,8.568-8.359,7.94-3.552,8.777s.208,11.493.417,12.12,1.881,3.761,1.254,4.6-8.568,10.24-8.568,10.24-2.717,6.478-2.717,7.314a20.315,20.315,0,0,1-1.463,3.97l-6.7-2.2-7.506-6.79-2.3-7.523-4.179-15.882-5.851-13.165L77.6,217.41l-11.218-6.478s-7.826-10.867-7.048-11.493,2.032-15.046,2.032-15.046l7.941-1.045L81.84,181.7l19.225,1.651Z" transform="translate(-12.33 -37.796)" fill="#3aaba1"/>
          <path id="Tracé_57" data-name="Tracé 57" d="M76.624,157.232C76,156.6,73.49,145.913,73.49,145.913l4.388-8.115,3.143-2.357,4.171,1.94s2.716-6.688,2.926-7.523,3.762-7.732,3.762-7.732,7.3-1.917,7.942-2.09a64.938,64.938,0,0,0,8.357-3.552l.209-8.15-2.3-7.732-.627-5.851,5.434,8.986,7.1,1.672s8.777-1.255,8.985-1.881,1.463-8.777,1.463-8.777V88.024l-8.359-14.8h-11.82l-8.448,5.6L86.629,87.559,73.49,109.992l-5.924,10.114-2.225,6.2s3.552,11.911,3.761,12.539,4.807,18.389,4.807,18.389Z" transform="translate(-13.592 -15.232)" fill="#3aaba1"/>
        </g>
      </g>
      <g id="Groupe_97" data-name="Groupe 97">
        <g id="Groupe_96" data-name="Groupe 96" clip-path="url(#clip-path)">
          <path id="Tracé_58" data-name="Tracé 58" d="M319.974,155.133l-6.6,4.121,2.377,18.1-3.669,25.433-5.549,16.922L296.2,236.959s19.256,1.418,20.139,1.4,15.416-3.131,15.416-3.131l12.891-8.19,4.152-2.451,1.81-6.8.893-12.167Z" transform="translate(-61.614 -32.27)" fill="#2a6224"/>
          <path id="Tracé_59" data-name="Tracé 59" d="M86.651,73.51l4.411.924,15.432-10.386,23.76-11.33,16.77-5.92,20.341-.6S157.511,29.592,157,28.876s-11.387-10.853-11.387-10.853l-14.093-5.888-4.385-2-6.612,2.4-10.49,6.229Z" transform="translate(-18.025 -2.108)" fill="#2a6224"/>
          <path id="Tracé_60" data-name="Tracé 60" d="M121.016,298.249v-8.6l-16.495-5.932-19.75-17.4-12.03-13.1L64.2,234.746s-11.4,15.583-11.857,16.339-5.509,14.734-5.509,14.734l.12,15.273-.12,4.819,4.808,5.137,9.849,7.2Z" transform="translate(-9.742 -48.831)" fill="#2a6224"/>
        </g>
      </g>
      <g id="Groupe_99" data-name="Groupe 99" transform="translate(163.619 116.52)">
        <g id="Groupe_98" data-name="Groupe 98" clip-path="url(#clip-path-3)">
          <rect id="Rectangle_73" data-name="Rectangle 73" width="22.139" height="13.512" transform="translate(-0.707 0.041) rotate(-3.3)" fill="url(#linear-gradient)"/>
        </g>
      </g>
      <g id="Groupe_101" data-name="Groupe 101" transform="translate(70.274 160.568)">
        <g id="Groupe_100" data-name="Groupe 100" clip-path="url(#clip-path-4)">
          <rect id="Rectangle_74" data-name="Rectangle 74" width="22.809" height="26.88" transform="matrix(0.967, -0.255, 0.255, 0.967, -5.716, 1.506)" fill="url(#linear-gradient-2)"/>
        </g>
      </g>
      <g id="Groupe_103" data-name="Groupe 103" transform="translate(100.367 190.491)">
        <g id="Groupe_102" data-name="Groupe 102" clip-path="url(#clip-path-5)">
          <rect id="Rectangle_75" data-name="Rectangle 75" width="22.809" height="26.881" transform="translate(-5.716 1.507) rotate(-14.765)" fill="url(#linear-gradient-3)"/>
        </g>
      </g>
      <g id="Groupe_105" data-name="Groupe 105" transform="translate(174.353 113.541)">
        <g id="Groupe_104" data-name="Groupe 104" clip-path="url(#clip-path-6)">
          <rect id="Rectangle_76" data-name="Rectangle 76" width="29.555" height="35.587" transform="matrix(0.967, -0.255, 0.255, 0.967, -7.613, 2.007)" fill="url(#linear-gradient-4)"/>
        </g>
      </g>
      <g id="Groupe_107" data-name="Groupe 107" transform="translate(221.665 142)">
        <g id="Groupe_106" data-name="Groupe 106" clip-path="url(#clip-path-7)">
          <rect id="Rectangle_77" data-name="Rectangle 77" width="28.916" height="35.193" transform="translate(-7.552 1.99) rotate(-14.765)" fill="url(#linear-gradient-5)"/>
        </g>
      </g>
      <g id="Groupe_109" data-name="Groupe 109" transform="translate(60.917 60.47)">
        <g id="Groupe_108" data-name="Groupe 108" clip-path="url(#clip-path-8)">
          <rect id="Rectangle_78" data-name="Rectangle 78" width="29.555" height="35.587" transform="matrix(0.967, -0.255, 0.255, 0.967, -7.613, 2.007)" fill="url(#linear-gradient-6)"/>
        </g>
      </g>
      <g id="Groupe_111" data-name="Groupe 111" transform="translate(128.682 26.587)">
        <g id="Groupe_110" data-name="Groupe 110" clip-path="url(#clip-path-9)">
          <rect id="Rectangle_79" data-name="Rectangle 79" width="29.554" height="35.587" transform="translate(-7.613 2.007) rotate(-14.765)" fill="url(#linear-gradient-7)"/>
        </g>
      </g>
      <g id="Groupe_113" data-name="Groupe 113" transform="translate(199.334 172.641)">
        <g id="Groupe_112" data-name="Groupe 112" clip-path="url(#clip-path-10)">
          <rect id="Rectangle_80" data-name="Rectangle 80" width="27.718" height="16.916" transform="translate(-0.885 0.051) rotate(-3.3)" fill="url(#linear-gradient-8)"/>
        </g>
      </g>
      <g id="Groupe_115" data-name="Groupe 115" transform="translate(81.025 206.703)">
        <g id="Groupe_114" data-name="Groupe 114" clip-path="url(#clip-path-11)">
          <rect id="Rectangle_81" data-name="Rectangle 81" width="27.718" height="16.916" transform="translate(-0.885 0.051) rotate(-3.3)" fill="url(#linear-gradient-9)"/>
        </g>
      </g>
      <g id="Groupe_117" data-name="Groupe 117" transform="translate(83.302 182.794)">
        <g id="Groupe_116" data-name="Groupe 116" clip-path="url(#clip-path-12)">
          <rect id="Rectangle_82" data-name="Rectangle 82" width="27.718" height="16.916" transform="matrix(0.998, -0.058, 0.058, 0.998, -0.885, 0.051)" fill="url(#linear-gradient-10)"/>
        </g>
      </g>
      <g id="Groupe_119" data-name="Groupe 119" transform="translate(56.463 93.697)">
        <g id="Groupe_118" data-name="Groupe 118" clip-path="url(#clip-path-13)">
          <rect id="Rectangle_83" data-name="Rectangle 83" width="27.718" height="16.916" transform="translate(-0.885 0.051) rotate(-3.3)" fill="url(#linear-gradient-11)"/>
        </g>
      </g>
      <g id="Groupe_121" data-name="Groupe 121" transform="translate(77.528 80.405)">
        <g id="Groupe_120" data-name="Groupe 120" clip-path="url(#clip-path-14)">
          <rect id="Rectangle_84" data-name="Rectangle 84" width="27.718" height="16.916" transform="matrix(0.998, -0.058, 0.058, 0.998, -0.885, 0.051)" fill="url(#linear-gradient-12)"/>
        </g>
      </g>
      <g id="Groupe_123" data-name="Groupe 123" transform="translate(119.883 56.413)">
        <g id="Groupe_122" data-name="Groupe 122" clip-path="url(#clip-path-15)">
          <rect id="Rectangle_85" data-name="Rectangle 85" width="27.718" height="16.916" transform="translate(-0.885 0.051) rotate(-3.3)" fill="url(#linear-gradient-13)"/>
        </g>
      </g>
      <g id="Groupe_125" data-name="Groupe 125" transform="translate(191.584 152.081)">
        <g id="Groupe_124" data-name="Groupe 124" clip-path="url(#clip-path-16)">
          <rect id="Rectangle_86" data-name="Rectangle 86" width="30.766" height="22.209" transform="matrix(0.98, -0.2, 0.2, 0.98, -3.32, 0.676)" fill="url(#linear-gradient-14)"/>
        </g>
      </g>
      <g id="Groupe_127" data-name="Groupe 127" transform="translate(97.304 165.864)">
        <g id="Groupe_126" data-name="Groupe 126" clip-path="url(#clip-path-17)">
          <rect id="Rectangle_87" data-name="Rectangle 87" width="30.766" height="22.21" transform="translate(-3.32 0.676) rotate(-11.515)" fill="url(#linear-gradient-15)"/>
        </g>
      </g>
      <g id="Groupe_129" data-name="Groupe 129" transform="translate(190.603 128.987)">
        <g id="Groupe_128" data-name="Groupe 128" clip-path="url(#clip-path-18)">
          <rect id="Rectangle_88" data-name="Rectangle 88" width="30.766" height="22.21" transform="translate(-3.32 0.676) rotate(-11.515)" fill="url(#linear-gradient-16)"/>
        </g>
      </g>
      <g id="Groupe_131" data-name="Groupe 131" transform="translate(76.997 54.158)">
        <g id="Groupe_130" data-name="Groupe 130" clip-path="url(#clip-path-19)">
          <rect id="Rectangle_89" data-name="Rectangle 89" width="30.766" height="22.209" transform="matrix(0.98, -0.2, 0.2, 0.98, -3.32, 0.676)" fill="url(#linear-gradient-17)"/>
        </g>
      </g>
      <g id="Groupe_133" data-name="Groupe 133" transform="translate(140.258 45.671)">
        <g id="Groupe_132" data-name="Groupe 132" clip-path="url(#clip-path-20)">
          <rect id="Rectangle_90" data-name="Rectangle 90" width="30.766" height="22.21" transform="matrix(0.98, -0.2, 0.2, 0.98, -3.32, 0.676)" fill="url(#linear-gradient-18)"/>
        </g>
      </g>
      <g id="Groupe_135" data-name="Groupe 135" transform="translate(205.554 105.054)">
        <g id="Groupe_134" data-name="Groupe 134" clip-path="url(#clip-path-21)">
          <rect id="Rectangle_91" data-name="Rectangle 91" width="30.766" height="22.21" transform="matrix(0.98, -0.2, 0.2, 0.98, -3.32, 0.676)" fill="url(#linear-gradient-19)"/>
        </g>
      </g>
      <g id="Groupe_137" data-name="Groupe 137" transform="translate(188.122 95.938)">
        <g id="Groupe_136" data-name="Groupe 136" clip-path="url(#clip-path-22)">
          <rect id="Rectangle_92" data-name="Rectangle 92" width="29.555" height="35.587" transform="translate(-7.613 2.007) rotate(-14.765)" fill="url(#linear-gradient-20)"/>
        </g>
      </g>
      <g id="Groupe_139" data-name="Groupe 139" transform="translate(211.59 119.675)">
        <g id="Groupe_138" data-name="Groupe 138" clip-path="url(#clip-path-23)">
          <rect id="Rectangle_93" data-name="Rectangle 93" width="29.555" height="35.587" transform="matrix(0.967, -0.255, 0.255, 0.967, -7.613, 2.007)" fill="url(#linear-gradient-21)"/>
        </g>
      </g>
      <g id="Groupe_141" data-name="Groupe 141" transform="translate(85.53 139.667)">
        <g id="Groupe_140" data-name="Groupe 140" clip-path="url(#clip-path-24)">
          <rect id="Rectangle_94" data-name="Rectangle 94" width="29.555" height="35.587" transform="matrix(0.967, -0.255, 0.255, 0.967, -7.613, 2.007)" fill="url(#linear-gradient-22)"/>
        </g>
      </g>
      <g id="Groupe_143" data-name="Groupe 143" transform="translate(89.295 56.361)">
        <g id="Groupe_142" data-name="Groupe 142" clip-path="url(#clip-path-25)">
          <rect id="Rectangle_95" data-name="Rectangle 95" width="29.556" height="35.587" transform="translate(-7.613 2.007) rotate(-14.765)" fill="url(#linear-gradient-23)"/>
        </g>
      </g>
      <g id="Groupe_145" data-name="Groupe 145" transform="translate(114.304 30.724)">
        <g id="Groupe_144" data-name="Groupe 144" clip-path="url(#clip-path-26)">
          <rect id="Rectangle_96" data-name="Rectangle 96" width="29.554" height="35.587" transform="matrix(0.967, -0.255, 0.255, 0.967, -7.613, 2.007)" fill="url(#linear-gradient-24)"/>
        </g>
      </g>
      <g id="Groupe_147" data-name="Groupe 147" transform="translate(190.603 144.983)">
        <g id="Groupe_146" data-name="Groupe 146" clip-path="url(#clip-path-27)">
          <rect id="Rectangle_97" data-name="Rectangle 97" width="17.081" height="10.425" transform="translate(-0.545 0.031) rotate(-3.3)" fill="url(#linear-gradient-25)"/>
        </g>
      </g>
      <g id="Groupe_149" data-name="Groupe 149" transform="translate(211.217 79.556)">
        <g id="Groupe_148" data-name="Groupe 148" clip-path="url(#clip-path-28)">
          <rect id="Rectangle_98" data-name="Rectangle 98" width="27.718" height="16.916" transform="translate(-0.885 0.051) rotate(-3.3)" fill="url(#linear-gradient-26)"/>
        </g>
      </g>
      <g id="Groupe_151" data-name="Groupe 151" transform="translate(181.619 79.615)">
        <g id="Groupe_150" data-name="Groupe 150" clip-path="url(#clip-path-29)">
          <rect id="Rectangle_99" data-name="Rectangle 99" width="30.766" height="22.21" transform="translate(-3.32 0.676) rotate(-11.515)" fill="url(#linear-gradient-27)"/>
        </g>
      </g>
      <g id="Groupe_153" data-name="Groupe 153" transform="translate(228.389 80.353)">
        <g id="Groupe_152" data-name="Groupe 152" clip-path="url(#clip-path-30)">
          <rect id="Rectangle_100" data-name="Rectangle 100" width="29.555" height="35.586" transform="matrix(0.967, -0.255, 0.255, 0.967, -7.613, 2.007)" fill="url(#linear-gradient-28)"/>
        </g>
      </g>
      <g id="Groupe_155" data-name="Groupe 155" transform="translate(59.296 145.551)">
        <g id="Groupe_154" data-name="Groupe 154" clip-path="url(#clip-path-31)">
          <rect id="Rectangle_101" data-name="Rectangle 101" width="30.766" height="22.209" transform="matrix(0.98, -0.2, 0.2, 0.98, -3.32, 0.676)" fill="url(#linear-gradient-29)"/>
        </g>
      </g>
      <g id="Groupe_157" data-name="Groupe 157">
        <g id="Groupe_156" data-name="Groupe 156" clip-path="url(#clip-path)">
          <path id="Tracé_90" data-name="Tracé 90" d="M0,139.194l65.265-3.778,24.372,56.667L73.152,183.5s-32.97,53.812-32.97,54.263c0,1.03-2.747,13.738-2.747,13.738l-.344,13.752L1.374,202.042,0,191.053l2.061-10.3,5.495-12.913,10.3-16.279Z" transform="translate(0 -28.169)" fill="#268331"/>
          <path id="Tracé_91" data-name="Tracé 91" d="M268.257,23.419,246.1,84.924l-61.686.159,14.371-11.789S162.244,21.841,161.83,21.664c-.948-.4-11.555-7.922-11.555-7.922L137.762,8.025,209.918,0l10.647,3.053,8.666,5.941,9.718,10.126,10.925,15.868Z" transform="translate(-28.657)" fill="#268331"/>
          <path id="Tracé_92" data-name="Tracé 92" d="M242.482,339.527l-37.769-53.36,35.161-50.685,1.447,18.53s63.108-.532,63.489-.771c.874-.546,13.108-4.944,13.108-4.944l11.847-6.992-34.7,63.772-8.595,6.985-9.831,3.709-13.864,2.177-19.265-.118Z" transform="translate(-42.584 -48.984)" fill="#268331"/>
        </g>
      </g>
    </g>
  </g>
</svg>
