<svg xmlns="http://www.w3.org/2000/svg" xmlns:xlink="http://www.w3.org/1999/xlink" width="21.475" height="21.975" viewBox="0 0 21.475 21.975"><defs><clipPath id="a"><path d="M22.68,10.444H12.442v4.245h5.893c-.549,2.7-2.847,4.245-5.893,4.245a6.493,6.493,0,0,1,0-12.985A6.352,6.352,0,0,1,16.487,7.4l3.2-3.2a10.98,10.98,0,1,0-7.242,19.228c5.494,0,10.488-4,10.488-10.987A9.115,9.115,0,0,0,22.68,10.444Z" transform="translate(-1.455 -1.455)"/></clipPath></defs><g transform="translate(-1.455 -1.455)"><g transform="translate(1.455 1.455)" clip-path="url(#a)"><path d="M0,20.985V8l8.49,6.493Z" transform="translate(-0.999 -3.505)" fill="#fbbc05"/></g><g transform="translate(1.455 1.455)" clip-path="url(#a)"><path d="M0,5.494l8.49,6.493,3.5-3.047L23.973,6.992V0H0Z" transform="translate(-0.999 -0.999)" fill="#ea4335"/></g><g transform="translate(1.455 1.455)" clip-path="url(#a)"><path d="M0,18.479,14.983,6.992l3.945.5L23.973,0V23.973H0Z" transform="translate(-0.999 -0.999)" fill="#34a853"/></g><g transform="translate(1.455 1.455)" clip-path="url(#a)"><path d="M26.935,26.479,11.452,14.493l-2-1.5L26.935,8Z" transform="translate(-3.961 -3.505)" fill="#4285f4"/></g></g></svg>