<svg xmlns="http://www.w3.org/2000/svg" width="52" height="46" viewBox="0 0 52 46"><g transform="translate(-1033 -336)"><g transform="translate(1033 336)"><path d="M23,0h6A23,23,0,0,1,52,23V46a0,0,0,0,1,0,0H23A23,23,0,0,1,0,23v0A23,23,0,0,1,23,0Z" fill="#00c037"/></g><g transform="translate(1043.939 349.873)"><g transform="translate(0 0)"><path d="M0,1.636,5.172,6.622l-1.5,1.561,6.32,1.57-1.8-6.259-1.5,1.561L1.548,0Z" transform="translate(25.613 21.563) rotate(-171)" fill="#fff"/><path d="M1,1V17.7H29.12V1H1M0,0H30.12V18.7H0Z" transform="translate(0 0)" fill="#fff"/><rect width="30.12" height="4.987" transform="translate(0 0)" fill="#fff"/></g></g></g></svg>