<svg xmlns="http://www.w3.org/2000/svg" width="214" height="214" viewBox="0 0 214 214"><g transform="translate(-1017.819 -596.366)"><path d="M822.819,713.368a107,107,0,1,1-107-107,107,107,0,0,1,107,107" transform="translate(409 -10.002)" fill="#00c037"/><path d="M871.341,853.075c1.859,2.189,19.286,19.655,22.137,23.211,2.46,3.068,3.061,6.664,1.24,10.185a9.863,9.863,0,0,1-9.27,5.517,10.584,10.584,0,0,1-7.514-3.834c-4.227-5-15.756-16.771-20-21.762-.279-.328-.584-.634-1-1.076-.425.771-.812,1.4-1.135,2.07q-4.639,9.54-9.26,19.088a4.076,4.076,0,0,1-5.714,2.2,6.767,6.767,0,0,1-4.052-4.769q-3.88-13.845-7.773-27.687-6-21.3-12.015-42.6a9.806,9.806,0,0,1-.2-5.867c1.06-3.236,4.127-4.687,7.875-3.387a85.946,85.946,0,0,1,8.112,3.593q29.958,14.036,59.908,28.087a7.068,7.068,0,0,1,4.343,4.834c.643,2.69-.452,4.623-3.089,5.4q-10.041,2.965-20.083,5.926c-.792.235-1.563.541-2.521.876" transform="translate(291.214 -122.061)" fill="#fff"/><path d="M892.52,788.193a5.075,5.075,0,0,1,3.685-4.979c5.315-1.633,10.658-3.193,16.045-4.564a4.905,4.905,0,0,1,6.346,3.684A4.978,4.978,0,0,1,915,788.648c-5.178,1.625-10.394,3.157-15.656,4.481-3.788.954-6.816-1.4-6.828-4.936" transform="translate(248.043 -107.627)" fill="#fff"/><path d="M729.385,830.86c3.32-.01,5.3,1.456,5.879,3.789a4.853,4.853,0,0,1-2.688,5.885,48.073,48.073,0,0,1-6.408,2.092c-3.521,1.016-7.033,2.1-10.606,2.892a4.927,4.927,0,0,1-6.277-3.8c-.7-2.774.7-5.282,3.737-6.241,4.044-1.274,8.141-2.381,12.222-3.536,1.609-.455,3.235-.846,4.141-1.081" transform="translate(352.102 -137.367)" fill="#fff"/><path d="M861.678,734.715A5.231,5.231,0,0,1,857,726.852c2.647-4.842,5.354-9.65,8.078-14.45a4.678,4.678,0,0,1,5.326-2.524,5.067,5.067,0,0,1,4.3,4.269,5.519,5.519,0,0,1-.548,3.042q-4.037,7.526-8.308,14.926a4.673,4.673,0,0,1-4.175,2.6" transform="translate(268.594 -68.668)" fill="#fff"/><path d="M744.006,767.188c-.028,2.5-1.339,4.741-3.611,5.294a6.326,6.326,0,0,1-4.048-.627q-7.413-3.853-14.625-8.085a5.089,5.089,0,0,1-1.857-6.962,5.014,5.014,0,0,1,6.892-2.017c5.046,2.658,10.014,5.466,14.964,8.3a4.312,4.312,0,0,1,2.285,4.1" transform="translate(346.385 -93.845)" fill="#fff"/><path d="M763.215,896.029a14.491,14.491,0,0,1,.816-2.338q4.018-7.322,8.13-14.592a5.211,5.211,0,0,1,6.921-1.983,4.92,4.92,0,0,1,2.119,6.9q-4.025,7.393-8.172,14.72a5.009,5.009,0,0,1-5.91,2.4,5.565,5.565,0,0,1-3.9-5.111" transform="translate(321.404 -163.268)" fill="#fff"/><path d="M797.387,725.937a4.646,4.646,0,0,1-4.6-3.352c-1.672-5.482-3.289-10.987-4.713-16.537a4.94,4.94,0,0,1,3.719-6.217A5.082,5.082,0,0,1,798,703.45c1.6,5.275,3.132,10.575,4.531,15.907a5.006,5.006,0,0,1-5.143,6.58" transform="translate(307.407 -62.931)" fill="#fff"/></g></svg>