<svg xmlns="http://www.w3.org/2000/svg" width="52" height="46" viewBox="0 0 52 46"><g transform="translate(-1293 -336)"><g transform="translate(1293 336)"><path d="M23,0h6A23,23,0,0,1,52,23V46a0,0,0,0,1,0,0H23A23,23,0,0,1,0,23v0A23,23,0,0,1,23,0Z" fill="#00c037"/><g transform="translate(11.948 11.769)"><g transform="translate(0 0)"><g transform="translate(0 0)"><rect width="3.987" height="4.914" transform="translate(21.24 17.547)" fill="#fff"/><rect width="3.987" height="8.716" transform="translate(15.931 13.745)" fill="#fff"/><rect width="3.987" height="11.776" transform="translate(10.623 10.685)" fill="#fff"/><rect width="3.987" height="14.465" transform="translate(5.314 7.996)" fill="#fff"/><rect width="3.987" height="16.69" transform="translate(0.006 5.771)" fill="#fff"/><path d="M0,0V2.352H4.824l6.966,6h5.52L22.9,13.743,21.273,15.43l6.831,1.7-1.945-6.764-1.626,1.687L18.26,6h-5.6L5.7,0Z" transform="translate(0 0.001)" fill="#fff"/></g></g></g></g></g></svg>