<svg xmlns="http://www.w3.org/2000/svg" width="52" height="46" viewBox="0 0 52 46"><g transform="translate(-1540 -336)"><g transform="translate(1540 336)"><path d="M23,0h6A23,23,0,0,1,52,23V46a0,0,0,0,1,0,0H23A23,23,0,0,1,0,23v0A23,23,0,0,1,23,0Z" fill="#00c037"/></g><g transform="translate(1554.465 345.18)"><g transform="translate(0 0)"><g transform="translate(0 0)"><path d="M1.612,3.6A5.291,5.291,0,0,0,0,6.954,4.239,4.239,0,0,0,.345,8.736,4.8,4.8,0,0,0,1.36,10.255a5.292,5.292,0,0,0,3.5,1.251c2.71.193,5.45-.832,8.144-3.046,2.274-1.869,3.76-5.336,4.272-6.671-1.3-.594-4.809-2.028-7.738-1.755C6.07.357,3.4,1.557,1.612,3.6Z" transform="translate(6.108 13.026) rotate(11)" fill="#fff"/><path d="M5.5,15.032c2.094-2.39,5.162-3.789,9.122-4.157h0a11.045,11.045,0,0,1,2.071.015c.084-.158.167-.317.249-.48C18.726,6.854,18.609,1.732,18.509,0c-1.735-.03-6.881.065-10.351,2C4.169,4.239,1.607,7.1.544,10.508A7.015,7.015,0,0,0,.4,15.45a5.666,5.666,0,0,0,1.386,1.995A6.674,6.674,0,0,0,3.56,18.631h0a6.8,6.8,0,0,1,1.937-3.6Z" transform="translate(3.557 0) rotate(11)" fill="#fff"/></g></g></g></g></svg>