<svg xmlns="http://www.w3.org/2000/svg" width="214.121" height="214.121" viewBox="0 0 214.121 214.121"><g transform="translate(-745.879 -595.349)"><g transform="translate(132.879 247.47)"><path d="M214.121,107.063A107.061,107.061,0,1,1,107.061,0,107.061,107.061,0,0,1,214.121,107.063" transform="translate(613 347.877)" fill="#00c037"/></g><g transform="translate(368.369 -243.057)"><path d="M7.04,1218.465a62.671,62.671,0,0,0,62.672,62.671V1155.79A62.673,62.673,0,0,0,7.04,1218.462Zm39.352,41.476a65.26,65.26,0,0,1-6.163-11.838H64.576v27.13C58.153,1273.333,51.736,1267.993,46.392,1259.941ZM64.576,1161.7v28.8H39.586a66.007,66.007,0,0,1,6.806-13.505C51.736,1168.936,58.153,1163.6,64.576,1161.7Zm-32,33.934a86.952,86.952,0,0,0-2.992,21.1H12.207a51.6,51.6,0,0,1,4.7-21.1H32.578Zm-2.946,26.234a86.608,86.608,0,0,0,3.417,21.1H17.659a57.086,57.086,0,0,1-5.381-21.1Zm34.944,21.1H38.393a81.023,81.023,0,0,1-3.623-21.1h29.8Zm0-26.233H34.719a81.765,81.765,0,0,1,3.169-21.1H64.573Zm-14.051-52.506c-6.774,6.14-12.592,15.287-16.369,26.272H19.446A57.846,57.846,0,0,1,50.522,1164.223ZM20.411,1248.1H34.745c3.78,10.241,9.349,18.777,15.775,24.6a57.859,57.859,0,0,1-30.111-24.6Z" transform="translate(415.225 -272.996)" fill="#fff"/><path d="M62.571,4.86A57.727,57.727,0,0,0,40.108,115.748,57.727,57.727,0,0,0,85.033,9.393,57.345,57.345,0,0,0,62.571,4.86m0-4.86A62.571,62.571,0,1,1,0,62.571,62.571,62.571,0,0,1,62.571,0Z" transform="translate(422 882.794)" fill="#fff"/><path d="M3.082,6.882C1.891,8.243.09,10.3,0,13.295A8.1,8.1,0,0,0,.66,16.7a9.169,9.169,0,0,0,1.94,2.9C4.771,21.676,7.5,21.87,9.3,22c5.181.368,10.42-1.591,15.57-5.823,4.347-3.573,7.189-10.2,8.167-12.754C30.545,2.285,23.844-.456,18.243.065,11.605.682,6.5,2.976,3.082,6.884Z" transform="translate(499.325 944.096) rotate(11)" fill="#fff"/><path d="M10.51,28.739c4-4.57,9.869-7.244,17.439-7.947h0a21.116,21.116,0,0,1,3.959.029c.161-.3.319-.606.476-.918,3.418-6.8,3.195-16.591,3-19.9C32.07-.049,22.232.132,15.6,3.84,7.971,8.1,3.073,13.572,1.041,20.09.328,22.375-.748,25.828.768,29.539a10.833,10.833,0,0,0,2.649,3.814,12.76,12.76,0,0,0,3.39,2.267c-.009.055.009-.055,0,0a13,13,0,0,1,3.7-6.879Z" transform="translate(494.448 919.193) rotate(11)" fill="#fff"/></g></g></svg>