<svg xmlns="http://www.w3.org/2000/svg" width="214.121" height="214.121" viewBox="0 0 214.121 214.121"><g transform="translate(-613 -347.879)"><path d="M214.121,107.063A107.061,107.061,0,1,1,107.061,0,107.061,107.061,0,0,1,214.121,107.063" transform="translate(613 347.877)" fill="#00c037"/><path d="M178.053,225.68c-18.954,5.956-45.478-4.1-59.321-22.3a61.084,61.084,0,0,1-2.864-70.677c13.937-21.335,39.919-32.112,64.447-26.317l-1.4,4.874c-4.652,16.234-9.491,32.418-13.815,48.739a26.039,26.039,0,0,0-.157,12.024c3.731,16.285,7.974,32.453,12.016,48.666.414,1.662.733,3.348,1.09,4.993" transform="translate(552.903 288.429)" fill="#fff"/><path d="M273.212,312.344l-13.106-52.507,52.041,14.912c-7.062,18.568-19.968,30.777-38.935,37.595" transform="translate(465.494 200.524)" fill="#fff"/><path d="M274.8,113.708c27.661,8.152,46.179,41.4,38.989,70.121l-54.6-15.645,15.61-54.476" transform="translate(466.012 283.394)" fill="#fff"/></g></svg>