<svg xmlns="http://www.w3.org/2000/svg" width="743.584" height="637.544" viewBox="0 0 743.584 637.544"><g transform="translate(-75.435 -291.549)"><path d="M337.455,291.468,513.2,326.012l61.748,84.85,67.793,264.912s-84.85,94.781-90.679,102.122S302.911,921.9,295.786,926.221s-162.574-8.42-168.4-15.761S53.976,754.794,49.658,743.351,12.306,658.286-2.159,616.617,19.215,409.783,26.556,383.658s48.794-87.872,60.453-92.19,151.132,0,151.132,0Z" transform="translate(176.279 2)" fill="#e0f5d7" opacity="0.55"/><path d="M337.455,291.468,513.2,326.012l61.748,84.85,67.793,264.912s-84.85,94.781-90.679,102.122S302.911,921.9,295.786,926.221s-162.574-8.42-168.4-15.761S53.976,754.794,49.658,743.351,12.306,658.286-2.159,616.617,19.215,409.783,26.556,383.658s48.794-87.872,60.453-92.19,151.132,0,151.132,0Z" transform="translate(131.279 2)" fill="#e0f5d7" opacity="0.66"/><path d="M337.455,291.468,513.2,326.012l61.748,84.85,67.793,264.912s-84.85,94.781-90.679,102.122S302.911,921.9,295.786,926.221s-162.574-8.42-168.4-15.761S53.976,754.794,49.658,743.351,12.306,658.286-2.159,616.617,19.215,409.783,26.556,383.658s48.794-87.872,60.453-92.19,151.132,0,151.132,0Z" transform="translate(81 2)" fill="#e0f5d7"/></g></svg>