<svg xmlns="http://www.w3.org/2000/svg" xmlns:xlink="http://www.w3.org/1999/xlink" width="16" height="16" viewBox="0 0 16 16">
  <defs>
    <clipPath id="clip-path">
      <rect id="Rectangle_166" data-name="Rectangle 166" width="14" height="14" transform="translate(0)" fill="none" stroke="#00c037" stroke-width="6"/>
    </clipPath>
  </defs>
  <g id="Groupe_570" data-name="Groupe 570" transform="translate(-5756 -1616)">
    <circle id="Ellipse_1" data-name="Ellipse 1" cx="8" cy="8" r="8" transform="translate(5756 1616)" fill="#00c037"/>
    <g id="Groupe_469" data-name="Groupe 469" transform="translate(5636.25 1525.25)">
      <g id="Groupe_468" data-name="Groupe 468" transform="translate(120.75 91.75)">
        <g id="Groupe_467" data-name="Groupe 467" transform="translate(0 0)">
          <g id="Groupe_466" data-name="Groupe 466" transform="translate(0)">
            <g id="Groupe_465" data-name="Groupe 465" clip-path="url(#clip-path)">
              <path id="Tracé_564" data-name="Tracé 564" d="M6.916,0,8.6.2l1.882.877,1.437,1.115,1.392,2.342.364,1.7V7.671l-.635,2.366-1.793,2.079L9.376,13.248l-2.64.429-1.167-.143-1.688-.449-1.9-1.435L.7,9.925,0,6.746.273,4.909l1-2.059L2.652,1.411,5.073.286ZM8.521.475,6.921.289,5.16.562,2.825,1.648,1.511,3.015.554,4.994.3,6.738.974,9.805l1.212,1.643,1.825,1.374,1.613.429,1.105.136,2.543-.413,1.785-1.08L12.779,9.9l.609-2.267V6.265l-.348-1.63L11.7,2.38,10.331,1.319Z" transform="translate(0.268 0.268)" fill="#fff"/>
              <path id="Tracé_564_-_Contour" data-name="Tracé 564 - Contour" d="M6.552-.5l1.73.2L10.2.594l1.47,1.142,1.421,2.385.371,1.742V7.335L12.814,9.75l-1.831,2.119L9.067,13.028l-2.689.436-1.2-.148-1.725-.458L1.511,11.4.207,9.629-.508,6.395l.28-1.884,1.015-2.1L2.2.937,4.669-.209ZM8.2-.02,6.558-.214l-1.8.279L4.051.395,4.757.067l1.8-.281L8.2-.022l1.839.858ZM8.119.259,6.563.077,4.843.344,2.551,1.408,1.271,2.74.333,4.679l-.252,1.7L.748,9.388l1.182,1.6,1.785,1.344,1.577.42,1.074.132,2.493-.4L10.6,11.429l1.685-1.952.6-2.218V5.923L12.54,4.33,11.227,2.118,9.893,1.084Zm3.33,1.669-1.073-.832,1.073.832.843,1.418ZM1.33,2.263l1.048-1.09.012-.006-.012.006Zm1.792,9.986-1.4-1.055L.48,9.508-.213,6.385l.266-1.79.53-1.1-.53,1.1-.266,1.79L.48,9.508l1.243,1.685ZM13.171,5.893v0Zm-2.379,5.756.487-.564-.487.564L8.986,12.741Z" transform="translate(0.629 0.625)" fill="#fff"/>
              <path id="Tracé_565" data-name="Tracé 565" d="M13.5,13.8,12,13.068l-1.237-1.387L9.953,10.09l0-.015c-.537-2-.537-2.049-.537-2.072,0-.051-.054-.746-.087-1.2V6.784l.451-2.511.847-1.787.011-.013s.3-.369.6-.731c.631-.76.655-.772.706-.788S12.785.6,13.3.379l.2-.086Zm-1.315-.96,1.025.5V.728c-.4.172-1,.426-1.146.486-.121.121-.783.922-1.195,1.427L10.05,4.363,9.613,6.8c.021.278.081,1.07.087,1.191.023.118.323,1.247.524,2l.783,1.532Z" transform="translate(-6.354 0.059)" fill="#fff"/>
              <path id="Tracé_565_-_Contour" data-name="Tracé 565 - Contour" d="M13.279,13.481l-1.73-.843-1.27-1.422L9.451,9.594l-.008-.029C8.91,7.58,8.9,7.5,8.9,7.459s-.046-.645-.087-1.192l0-.036.457-2.547.865-1.82.022-.027s.3-.367.6-.732c.654-.789.677-.8.769-.832.063-.024.731-.308,1.348-.572l.406-.173Zm-1.55-1.075,1.26.614-1.26-.614-1.2-1.344Zm.18-.231.791.385V.4c-.371.158-.766.326-.917.388C11.64.941,11.1,1.6,10.628,2.17l-.8,1.689-.431,2.4c.024.319.077,1.018.087,1.166.029.139.284,1.1.516,1.964l.769,1.5ZM9.3,7.9c.079.3.208.794.417,1.573C9.6,9.05,9.419,8.356,9.3,7.9ZM9.1,6.246h0c0,.007.037.488.063.841-.021-.291-.05-.668-.062-.823V6.246Zm1.279-4.228L9.729,3.387ZM11.477.7c-.089.1-.212.248-.361.427.141-.169.27-.321.361-.427Zm1.512-.734c-.009,0-.629.269-1.031.439L12.787.05Z" transform="translate(-5.989 0.605)" fill="#fff"/>
              <path id="Tracé_566" data-name="Tracé 566" d="M28.49,26.161l.426-.719,1.189-.458s1.207.14,1.261.176l.621.412-.479.729-.8.526-.817.123-.905-.123Z" transform="translate(-19.963 -17.572)" fill="#fff"/>
              <path id="Tracé_566_-_Contour" data-name="Tracé 566 - Contour" d="M29.47,26.732l-.986-.134-.591-.791.5-.844,1.271-.487.036,0s.306.036.612.075c.651.083.676.1.712.124l.622.413.118.079-.573.871-.85.56Zm-.826-.4.824.112.764-.114.747-.492.386-.586-.487-.323c-.108-.026-.665-.1-1.176-.158l-1.109.424-.353.6Z" transform="translate(-19.539 -17.209)" fill="#fff"/>
              <path id="Tracé_567" data-name="Tracé 567" d="M26.22,19.737c-.018-.053-.3-.474-.3-.474v-.772l.6-.842,1.118-.825h2.432l-.142.632-.3.825-.337.562-.568-.193-.728-.035-.746.237-.657.623Z" transform="translate(-18.136 -11.745)" fill="#fff"/>
              <path id="Tracé_567_-_Contour" data-name="Tracé 567 - Contour" d="M25.791,19.612l-.06-.179c-.023-.046-.165-.265-.286-.445l-.024-.036v-.86l.643-.9,1.175-.867H29.9l-.183.815-.31.846-.4.673-.66-.226-.681-.033-.689.219-.64.607Zm-.081-.746c.1.143.159.24.2.309l.234-.166.673-.638.8-.255.775.037.476.162.27-.45.294-.8.1-.449h-2.2l-1.062.783-.564.787Z" transform="translate(-17.783 -11.391)" fill="#fff"/>
              <path id="Ligne_1" data-name="Ligne 1" d="M5.841-.214H0V-.5H5.841Z" transform="translate(1.089 4.734)" fill="#fff"/>
              <path id="Ligne_1_-_Contour" data-name="Ligne 1 - Contour" d="M5.631-.428H-.5V-1H5.631ZM-.21-.714Z" transform="translate(1.444 5.091)" fill="#fff"/>
              <path id="Ligne_2" data-name="Ligne 2" d="M5.85-.214H0V-.5H5.85Z" transform="translate(1.08 10.367)" fill="#fff"/>
              <path id="Ligne_2_-_Contour" data-name="Ligne 2 - Contour" d="M5.64-.428H-.5V-1H5.64ZM-.21-.714Z" transform="translate(1.435 10.724)" fill="#fff"/>
              <path id="Ligne_3" data-name="Ligne 3" d="M6.417-.214H0V-.5H6.417Z" transform="translate(0.539 7.542)" fill="#fff"/>
              <path id="Ligne_3_-_Contour" data-name="Ligne 3 - Contour" d="M6.207-.428H-.5V-1H6.207ZM-.21-.714Z" transform="translate(0.894 7.899)" fill="#fff"/>
            </g>
          </g>
        </g>
      </g>
    </g>
  </g>
</svg>
