<svg xmlns="http://www.w3.org/2000/svg" xmlns:xlink="http://www.w3.org/1999/xlink" width="50" height="50" viewBox="0 0 50 50">
  <defs>
    <clipPath id="clip-path">
      <rect id="Rectangle_166" data-name="Rectangle 166" width="46.811" height="46.811" fill="none" stroke="#00c037" stroke-width="6"/>
    </clipPath>
  </defs>
  <g id="Groupe_571" data-name="Groupe 571" transform="translate(-5756 -1616)">
    <g id="Groupe_570" data-name="Groupe 570" transform="translate(5756 1616)">
      <path id="Tracé_272" data-name="Tracé 272" d="M25,0A25,25,0,1,1,0,25,25,25,0,0,1,25,0Z" fill="#00c037"/>
      <g id="Groupe_469" data-name="Groupe 469" transform="translate(2 2)">
        <g id="Groupe_468" data-name="Groupe 468" transform="translate(0 0)">
          <g id="Groupe_467" data-name="Groupe 467">
            <g id="Groupe_466" data-name="Groupe 466">
              <g id="Groupe_465" data-name="Groupe 465" clip-path="url(#clip-path)">
                <path id="Tracé_564" data-name="Tracé 564" d="M23.039,0l5.617.655,6.271,2.922,4.786,3.715,4.636,7.8,1.213,5.672v4.789l-2.115,7.882-5.974,6.925-6.237,3.771-8.8,1.429-3.887-.476-5.624-1.495L6.587,38.812,2.346,33.064,0,22.475l.909-6.12L4.226,9.5,8.836,4.7,16.9.953Zm5.347,1.583L23.057.962l-5.866.909L9.411,5.491,5.033,10.044,1.846,16.635.983,22.446,3.246,32.664l4.038,5.475,6.079,4.578,5.375,1.429,3.683.453,8.472-1.375,5.945-3.6,5.733-6.641L44.6,25.434V20.87l-1.159-5.43L38.972,7.927,34.415,4.392Z" transform="translate(0.154 0.153)" fill="#fff"/>
                <path id="Tracé_564_-_Contour" data-name="Tracé 564 - Contour" d="M23.012-.5l5.762.667,6.392,2.978,4.9,3.8,4.732,7.947,1.236,5.8v4.9l-2.159,8.046-6.1,7.059-6.384,3.86-8.959,1.454-3.991-.492L12.693,44,6.22,39.128,1.874,33.242-.508,22.468.424,16.19,3.8,9.2,8.529,4.286,16.738.468ZM28.5,1.1,23.03.453l-6,.931-2.35,1.1,2.351-1.093,6-.935,5.473.638,6.125,2.858Zm-.27.928-5.184-.6-5.732.889L9.683,5.857,5.418,10.294,2.294,16.751,1.454,22.4,3.676,32.442l3.937,5.335,5.947,4.477,5.255,1.4,3.579.44L30.7,42.745l5.795-3.506,5.612-6.5L44.09,25.35V20.9l-1.13-5.3L38.584,8.223,34.141,4.776ZM39.324,7.586,35.751,4.813l3.573,2.773,2.808,4.723ZM5.616,8.7l3.49-3.631.041-.019-.041.019Zm5.971,33.265-4.67-3.516L2.783,32.841.473,22.435l.886-5.963,1.765-3.649L1.359,16.471.473,22.435l2.31,10.406,4.139,5.612ZM45.061,20.8v0ZM37.137,39.973l1.623-1.88-1.623,1.88-6.018,3.639Z" transform="translate(0.172 0.177)" fill="#fff"/>
                <path id="Tracé_565" data-name="Tracé 565" d="M23.231,45.278l-4.98-2.427L14.13,38.232l-2.712-5.3-.013-.049c-1.791-6.668-1.791-6.826-1.791-6.9,0-.17-.179-2.484-.29-4v-.06l1.5-8.364L13.647,7.6l.037-.045c.01-.012,1-1.229,2-2.437,2.1-2.531,2.184-2.572,2.353-2.626.2-.075,2.811-1.185,4.519-1.916l.676-.286Zm-4.382-3.2,3.416,1.665v-42c-1.341.572-3.331,1.42-3.817,1.619-.4.4-2.608,3.073-3.981,4.753L11.74,13.852l-1.456,8.122c.071.926.271,3.564.29,3.967.075.392,1.075,4.155,1.746,6.655l2.608,5.1Z" transform="translate(-0.165 0.139)" fill="#fff"/>
                <path id="Tracé_565_-_Contour" data-name="Tracé 565 - Contour" d="M23.7,46.009,17.934,43.2,13.7,38.462l-2.763-5.4-.026-.1C9.139,26.353,9.109,26.1,9.109,25.949c-.007-.179-.154-2.15-.29-3.969l-.009-.12,1.522-8.485,2.88-6.062.072-.09c.01-.011,1-1.221,2.008-2.44,2.18-2.628,2.256-2.667,2.563-2.773.209-.08,2.434-1.025,4.49-1.905L23.7-.472Zm-5.164-3.58,4.2,2.046-4.2-2.046-4-4.477Zm.6-.771,2.634,1.281V2.431c-1.237.528-2.552,1.086-3.054,1.293-.474.512-2.284,2.691-3.849,4.606l-2.676,5.628-1.435,8c.081,1.064.258,3.391.29,3.883.1.462.947,3.667,1.72,6.544l2.56,5Zm-8.692-14.23c.262,1.011.694,2.646,1.391,5.239-.377-1.418-.994-3.731-1.388-5.239Zm-.663-5.519h0c0,.025.125,1.624.211,2.8-.071-.969-.167-2.226-.207-2.742v-.06Zm4.26-14.085-2.167,4.559Zm3.656-4.4c-.3.339-.707.827-1.2,1.422.469-.562.9-1.071,1.2-1.422ZM22.731.98c-.03.012-2.1.9-3.436,1.463.663-.28,1.6-.678,2.762-1.175Z" transform="translate(-0.147 0.176)" fill="#fff"/>
                <path id="Tracé_566" data-name="Tracé 566" d="M28.49,28.9l1.42-2.4,3.96-1.524s4.021.468,4.2.585l2.07,1.374-1.594,2.429-2.661,1.754-2.721.41-3.016-.41Z" transform="translate(-0.821 -1.031)" fill="#fff"/>
                <path id="Tracé_566_-_Contour" data-name="Tracé 566 - Contour" d="M33.145,31.992l-3.284-.447-1.968-2.636,1.665-2.81,4.233-1.623.12.014c.01,0,1.02.119,2.039.25,2.167.277,2.253.334,2.373.412l2.071,1.375.394.262-1.91,2.9-2.833,1.867Zm-2.751-1.334,2.745.372,2.545-.381,2.489-1.64,1.284-1.951-1.623-1.077c-.359-.086-2.215-.329-3.919-.528l-3.7,1.414L29.043,28.85Z" transform="translate(-0.8 -1.007)" fill="#fff"/>
                <path id="Tracé_567" data-name="Tracé 567" d="M26.923,26.529c-.059-.175-1.005-1.578-1.005-1.578V22.379l2.011-2.806,3.726-2.748h8.1l-.473,2.105-1.005,2.747-1.123,1.871L35.262,22.9l-2.425-.117-2.484.791-2.187,2.074Z" transform="translate(-0.733 -0.644)" fill="#fff"/>
                <path id="Tracé_567_-_Contour" data-name="Tracé 567 - Contour" d="M26.656,27.269l-.2-.6c-.076-.154-.55-.881-.954-1.481l-.081-.12V22.207l2.143-2.991,3.915-2.888h8.863l-.61,2.715L38.7,21.862,37.352,24.1l-2.2-.754-2.269-.11-2.294.731L28.46,25.993Zm-.27-2.486c.318.476.531.8.676,1.029l.78-.552,2.243-2.126,2.674-.851,2.582.125,1.585.538.9-1.5.979-2.676.336-1.5H31.8l-3.537,2.608-1.878,2.622Z" transform="translate(-0.716 -0.621)" fill="#fff"/>
                <path id="Ligne_1" data-name="Ligne 1" d="M19.458.453H0V-.5H19.458Z" transform="translate(2.889 13.866)" fill="#fff"/>
                <path id="Ligne_1_-_Contour" data-name="Ligne 1 - Contour" d="M19.924.905H-.5V-1H19.924ZM.466-.047Z" transform="translate(2.906 13.89)" fill="#fff"/>
                <path id="Ligne_2" data-name="Ligne 2" d="M19.487.453H0V-.5H19.487Z" transform="translate(2.86 32.632)" fill="#fff"/>
                <path id="Ligne_2_-_Contour" data-name="Ligne 2 - Contour" d="M19.953.905H-.5V-1H19.953ZM.466-.047Z" transform="translate(2.877 32.656)" fill="#fff"/>
                <path id="Ligne_3" data-name="Ligne 3" d="M21.376.453H0V-.5H21.376Z" transform="translate(1.058 23.219)" fill="#fff"/>
                <path id="Ligne_3_-_Contour" data-name="Ligne 3 - Contour" d="M21.842.905H-.5V-1H21.842ZM.466-.047Z" transform="translate(1.075 23.243)" fill="#fff"/>
              </g>
            </g>
          </g>
        </g>
      </g>
    </g>
  </g>
</svg>
