<svg xmlns="http://www.w3.org/2000/svg" xmlns:xlink="http://www.w3.org/1999/xlink" width="48.811" height="48" viewBox="0 0 48.811 48">
  <defs>
    <clipPath id="clip-path">
      <rect id="Rectangle_166" data-name="Rectangle 166" width="46.811" height="48" fill="none" stroke="#00c037" stroke-width="6"/>
    </clipPath>
  </defs>
  <g id="Groupe_571" data-name="Groupe 571" transform="translate(-5756 -1618)">
    <g id="Groupe_570" data-name="Groupe 570" transform="translate(5756 1618)">
      <path id="Tracé_272" data-name="Tracé 272" d="M0,25Z" transform="translate(0 -1.418)" fill="#00c037"/>
      <g id="Groupe_469" data-name="Groupe 469" transform="translate(2 0)">
        <g id="Groupe_468" data-name="Groupe 468" transform="translate(0 0)">
          <g id="Groupe_467" data-name="Groupe 467">
            <g id="Groupe_466" data-name="Groupe 466">
              <g id="Groupe_465" data-name="Groupe 465" clip-path="url(#clip-path)">
                <path id="Tracé_564" data-name="Tracé 564" d="M23.039,0l5.617.672,6.271,3,4.786,3.809,4.636,8,1.213,5.816V26.2l-2.115,8.082-5.974,7.1-6.237,3.867-8.8,1.465-3.887-.488L12.928,44.7,6.587,39.8,2.346,33.9,0,23.045l.909-6.276L4.226,9.737l4.61-4.915L16.9.977Zm5.347,1.623L23.057.987l-5.866.932L9.411,5.63,5.033,10.3,1.846,17.058.983,23.016,3.246,33.494l4.038,5.614L13.362,43.8l5.375,1.465,3.683.465,8.472-1.41,5.945-3.688,5.733-6.81L44.6,26.08V21.4l-1.159-5.568-4.467-7.7L34.415,4.5Z" transform="translate(0.154 0.157)" fill="#00c037"/>
                <path id="Tracé_564_-_Contour" data-name="Tracé 564 - Contour" d="M23.012-.5l5.762.684,6.392,3.053,4.9,3.9,4.732,8.148,1.236,5.95v5.028l-2.159,8.25-6.1,7.238L31.39,45.71,22.431,47.2l-3.991-.5-5.747-1.563-6.474-5L1.874,34.1-.508,23.051l.932-6.437L3.8,9.448l4.725-5.04L16.738.492ZM28.5,1.14,23.03.477l-6,.954-2.35,1.125,2.351-1.12,6-.959,5.473.654,6.125,2.93Zm-.27.951-5.184-.62-5.732.911L9.683,6.018l-4.265,4.55L2.294,17.19l-.839,5.792,2.221,10.3,3.937,5.47,5.947,4.591,5.255,1.436,3.579.451L30.7,43.843l5.795-3.595,5.612-6.667,1.983-7.576V21.44L42.96,16,38.584,8.444,34.141,4.91Zm11.092,5.7L35.751,4.948l3.573,2.843,2.808,4.843ZM5.616,8.937l3.49-3.724.041-.02-.041.02Zm5.971,34.11-4.67-3.605L2.783,33.687.473,23.017,1.359,16.9,3.124,13.16,1.359,16.9.473,23.017l2.31,10.67,4.139,5.754ZM45.061,21.338v0ZM37.137,41l1.623-1.928L37.137,41l-6.018,3.731Z" transform="translate(0.172 0.169)" fill="#00c037"/>
                <path id="Tracé_565" data-name="Tracé 565" d="M23.231,46.421l-4.98-2.489L14.13,39.2,11.418,33.76l-.013-.05c-1.791-6.837-1.791-7-1.791-7.079,0-.174-.179-2.547-.29-4.1v-.062l1.5-8.576,2.821-6.1.037-.046c.01-.013,1-1.26,2-2.5,2.1-2.6,2.184-2.637,2.353-2.693.2-.077,2.811-1.215,4.519-1.964l.676-.293Zm-4.382-3.279,3.416,1.707V1.779c-1.341.586-3.331,1.456-3.817,1.661-.4.414-2.608,3.151-3.981,4.874L11.74,14.2l-1.456,8.328c.071.949.271,3.654.29,4.067.075.4,1.075,4.261,1.746,6.824l2.608,5.233Z" transform="translate(-0.165 0.15)" fill="#00c037"/>
                <path id="Tracé_565_-_Contour" data-name="Tracé 565 - Contour" d="M23.7,47.189l-5.763-2.88L13.7,39.451l-2.763-5.537-.026-.1c-1.776-6.782-1.806-7.046-1.806-7.2-.007-.184-.154-2.2-.29-4.07l-.009-.123,1.522-8.7,2.88-6.216.072-.092c.01-.012,1-1.252,2.008-2.5,2.18-2.695,2.256-2.735,2.563-2.843.209-.082,2.434-1.051,4.49-1.954L23.7-.472Zm-5.164-3.671,4.2,2.1-4.2-2.1-4-4.591Zm.6-.79,2.634,1.314V2.5c-1.237.541-2.552,1.114-3.054,1.325-.474.525-2.284,2.759-3.849,4.723l-2.676,5.771-1.435,8.2c.081,1.091.258,3.477.29,3.981.1.474.947,3.761,1.72,6.711l2.56,5.131ZM10.439,28.137c.262,1.036.694,2.714,1.391,5.372-.377-1.454-.994-3.826-1.388-5.372Zm-.663-5.659h0c0,.025.125,1.665.211,2.873-.071-.993-.167-2.283-.207-2.811v-.062Zm4.26-14.443L11.869,12.71Zm3.656-4.511c-.3.348-.707.848-1.2,1.458.469-.576.9-1.1,1.2-1.458Zm5.038-2.507c-.03.013-2.1.919-3.436,1.5.663-.287,1.6-.7,2.762-1.205Z" transform="translate(-0.147 0.168)" fill="#00c037"/>
                <path id="Tracé_566" data-name="Tracé 566" d="M28.49,29l1.42-2.458,3.96-1.563s4.021.48,4.2.6l2.07,1.409-1.594,2.491-2.661,1.8-2.721.42-3.016-.42Z" transform="translate(-0.821 -0.423)" fill="#00c037"/>
                <path id="Tracé_566_-_Contour" data-name="Tracé 566 - Contour" d="M33.145,32.183l-3.284-.458-1.968-2.7,1.665-2.882,4.233-1.664.12.015c.01,0,1.02.122,2.039.256,2.167.284,2.253.343,2.373.423l2.071,1.41.394.269-1.91,2.975-2.833,1.914Zm-2.751-1.368,2.745.382,2.545-.391,2.489-1.682,1.284-2-1.623-1.1c-.359-.088-2.215-.337-3.919-.541l-3.7,1.45-1.174,2.034Z" transform="translate(-0.8 -0.411)" fill="#00c037"/>
                <path id="Tracé_567" data-name="Tracé 567" d="M26.923,26.775c-.059-.18-1.005-1.619-1.005-1.619V22.52l2.011-2.878,3.726-2.818h8.1l-.473,2.159L38.277,21.8l-1.123,1.918-1.892-.659-2.425-.12-2.484.811-2.187,2.126Z" transform="translate(-0.733 -0.233)" fill="#00c037"/>
                <path id="Tracé_567_-_Contour" data-name="Tracé 567 - Contour" d="M26.656,27.547l-.2-.612c-.076-.158-.55-.9-.954-1.519l-.081-.123V22.357l2.143-3.067,3.915-2.962h8.863l-.61,2.784L38.7,22l-1.347,2.3-2.2-.774-2.269-.112-2.294.749L28.46,26.238ZM26.386,25c.318.488.531.821.676,1.055l.78-.566,2.243-2.18,2.674-.872,2.582.128,1.585.552.9-1.536.979-2.744L39.14,17.3H31.8l-3.537,2.674-1.878,2.688Z" transform="translate(-0.716 -0.222)" fill="#00c037"/>
                <path id="Ligne_1" data-name="Ligne 1" d="M19.458.477H0V-.5H19.458Z" transform="translate(2.889 14.205)" fill="#00c037"/>
                <path id="Ligne_1_-_Contour" data-name="Ligne 1 - Contour" d="M19.924.954H-.5V-1H19.924ZM.466-.023Z" transform="translate(2.906 14.217)" fill="#00c037"/>
                <path id="Ligne_2" data-name="Ligne 2" d="M19.487.477H0V-.5H19.487Z" transform="translate(2.86 33.448)" fill="#00c037"/>
                <path id="Ligne_2_-_Contour" data-name="Ligne 2 - Contour" d="M19.953.954H-.5V-1H19.953ZM.466-.023Z" transform="translate(2.877 33.46)" fill="#00c037"/>
                <path id="Ligne_3" data-name="Ligne 3" d="M21.376.477H0V-.5H21.376Z" transform="translate(1.058 23.796)" fill="#00c037"/>
                <path id="Ligne_3_-_Contour" data-name="Ligne 3 - Contour" d="M21.842.954H-.5V-1H21.842ZM.466-.023Z" transform="translate(1.075 23.808)" fill="#00c037"/>
              </g>
            </g>
          </g>
        </g>
      </g>
    </g>
  </g>
</svg>
