<svg xmlns="http://www.w3.org/2000/svg" width="174.57" height="47.829" viewBox="0 0 174.57 47.829">
  <g id="Groupe_469" data-name="Groupe 469" transform="translate(-121 -92)">
    <g id="Groupe_468" data-name="Groupe 468">
      <g id="Groupe_467" data-name="Groupe 467">
        <path id="Union_1" data-name="Union 1" d="M-4975.8,209.829l-.086-.011-5.951-1.6-6.7-5.118-4.5-6.179-1.963-8.984v-5.788l.459-3.125,3.5-7.337,4.893-5.16,8.5-4.008,3.279-.516h7.479l1.7.2,6.618,3.126,5.074,3.993,4.894,8.343.78,3.709v9.416l-1.736,6.556-6.312,7.414-6.609,4.05-6.207,1.022Zm5.027-1.684,7.584-1.247,6-3.681,5.812-6.824,2.052-7.757v-4.675l-1.171-5.57-4.537-7.736-4.6-3.618-6.119-2.889-5.027-.594Zm-16.322-6.461,6.158,4.7,4.831,1.3-.635-.315-4.379-4.97-2.691-5.333h-6.64Zm7.645-.411,3.949,4.483,2.727,1.346V197.07h-8.8Zm-4.433-12.123c.093.435.807,3.182,1.53,5.919h9.578v-7.88h-11.245C-4983.958,188.062-4983.9,188.876-4983.885,189.15Zm-7.509,5.919h6.97c-1.429-5.422-1.456-5.662-1.457-5.8,0-.118-.065-.978-.147-2.076h-7.088Zm7.214-10c0,.038.006.076.009.117h11.394v-7.82h-10.04Zm-8.428-5.463-.817,5.58h7.249c0-.031,0-.06-.008-.092l-.009-.125,1.345-7.6h-6.69Zm16.669-13.679c-.49.538-2.364,2.827-3.985,4.836l-2.158,4.6h9.3V164.575C-4974.057,165.129-4975.418,165.714-4975.938,165.931Zm-9.017,2.243-4.416,4.657-1.212,2.538h6.294l2.659-5.67.075-.093c.01-.013,1.032-1.282,2.08-2.562,1.081-1.321,1.662-2.02,2.009-2.4Zm102.134,27.489,1.012-1.628a7.116,7.116,0,0,0,4.488,1.518c2.75,0,4-1.276,4-3.916v-.924a5.335,5.335,0,0,1-4.2,1.8,5.584,5.584,0,0,1-5.918-5.654,5.567,5.567,0,0,1,5.918-5.632,5.322,5.322,0,0,1,4.313,1.914v-1.8h2v10.076c0,4.113-2.09,5.983-6.05,5.983A8.632,8.632,0,0,1-4882.821,195.663Zm1.517-8.8a3.759,3.759,0,0,0,4.027,3.806,3.752,3.752,0,0,0,4-3.806,3.723,3.723,0,0,0-4-3.785A3.73,3.73,0,0,0-4881.3,186.862Zm-83.769,7.036-2.033-2.768,1.724-2.951,4.38-1.7.124.015c.01,0,1.056.124,2.111.261,2.244.292,2.333.351,2.457.434l2.144,1.443.407.275-1.977,3.046-2.934,1.959-3,.458Zm119.036-6.729a5.71,5.71,0,0,1,5.852-5.939c3.366,0,5.764,2.419,5.764,6.006,0,.176-.022.44-.044.638h-9.459a3.948,3.948,0,0,0,4.224,3.41,4.351,4.351,0,0,0,3.366-1.408l1.166,1.364a5.849,5.849,0,0,1-4.6,1.892C-4843.53,193.132-4846.038,190.646-4846.038,187.169Zm2.112-.814h7.479a3.635,3.635,0,0,0-3.739-3.343A3.633,3.633,0,0,0-4843.925,186.356Zm-15.577.814a5.71,5.71,0,0,1,5.852-5.939c3.366,0,5.764,2.419,5.764,6.006,0,.176-.021.44-.043.638h-9.46a3.95,3.95,0,0,0,4.224,3.41,4.354,4.354,0,0,0,3.367-1.408l1.166,1.364a5.853,5.853,0,0,1-4.6,1.892C-4856.994,193.132-4859.5,190.646-4859.5,187.169Zm2.112-.814h7.48a3.636,3.636,0,0,0-3.741-3.343A3.634,3.634,0,0,0-4857.39,186.356Zm-39.094,3.345c0-1.87,1.209-3.411,4.686-3.411h3.345v-.417c0-1.783-1.034-2.816-3.124-2.816a5.9,5.9,0,0,0-3.7,1.254l-.88-1.585a7.769,7.769,0,0,1,4.819-1.5c3.189,0,4.994,1.539,4.994,4.73V193h-2V191.46a4.327,4.327,0,0,1-3.827,1.671C-4894.812,193.132-4896.484,191.724-4896.484,189.7Zm2.089-.089c0,1.167.969,1.893,2.575,1.893a3.381,3.381,0,0,0,3.366-2.068v-1.628h-3.257C-4893.8,187.808-4894.395,188.622-4894.395,189.611Zm-28.578.089c0-1.87,1.209-3.411,4.686-3.411h3.344v-.417c0-1.783-1.034-2.816-3.124-2.816a5.9,5.9,0,0,0-3.7,1.254l-.88-1.585a7.77,7.77,0,0,1,4.819-1.5c3.19,0,4.994,1.539,4.994,4.73V193h-2V191.46a4.33,4.33,0,0,1-3.828,1.671C-4921.3,193.132-4922.972,191.724-4922.972,189.7Zm2.091-.089c0,1.167.968,1.893,2.574,1.893a3.382,3.382,0,0,0,3.366-2.068v-1.628h-3.257C-4920.288,187.808-4920.881,188.622-4920.881,189.611Zm-9.988-.132v-6.4h-1.981V181.34h1.981v-2.552h2.112v2.552h3.343v1.737h-3.343v6.314a1.718,1.718,0,0,0,1.825,1.958,2.655,2.655,0,0,0,1.649-.55l.661,1.518a3.981,3.981,0,0,1-2.552.814A3.327,3.327,0,0,1-4930.87,189.48Zm108.328,3.52v-6.468c0-2.288-1.145-3.41-3.146-3.41-2.244,0-3.7,1.343-3.7,3.872V193h-2.112V181.34h2.023v1.76a5,5,0,0,1,4.2-1.87c2.837,0,4.839,1.628,4.839,5.059V193Zm-44.639,0V181.34h2.024V183.3c.747-1.364,2.2-2.068,4.246-2.068v2.046a3.838,3.838,0,0,0-.484-.021c-2.266,0-3.674,1.385-3.674,3.938V193ZM-4900,193l-4.378-5.434-2.42,2.244V193h-2.112V176.676h2.112v10.472l6.358-5.808h2.553l-4.907,4.818,5.391,6.842Zm-37.687,0V177.6h2.2V193Zm-30.819-3.813c-.08-.162-.569-.925-.989-1.554l-.083-.125V184.5l2.219-3.14,4.054-3.032h9.177l-.632,2.849-1.068,2.958-1.394,2.355-2.276-.783-2.349-.115-2.375.766-2.209,2.122-1.867,1.338Z" transform="translate(5116 -70)" fill="#fff"/>
      </g>
    </g>
  </g>
</svg>
