<svg xmlns="http://www.w3.org/2000/svg" xmlns:xlink="http://www.w3.org/1999/xlink" width="177" height="47.829" viewBox="0 0 177 47.829">
  <defs>
    <clipPath id="clip-path">
      <rect id="Rectangle_166" data-name="Rectangle 166" width="47.176" height="47.829" transform="translate(0 0)" fill="none" stroke="#00c037" stroke-width="6"/>
    </clipPath>
  </defs>
  <g id="Groupe_469" data-name="Groupe 469" transform="translate(-121 -92)">
    <g id="Groupe_468" data-name="Groupe 468">
      <g id="Groupe_467" data-name="Groupe 467">
        <g id="Groupe_466" data-name="Groupe 466" transform="translate(121 92)">
          <g id="Groupe_465" data-name="Groupe 465" clip-path="url(#clip-path)">
            <path id="Tracé_564" data-name="Tracé 564" d="M23.855,0l5.816.688,6.493,3.067,4.956,3.9,4.8,8.191L47.176,21.8v5.027l-2.19,8.274L38.8,42.371,32.342,46.33l-9.108,1.5-4.025-.5-5.823-1.569L6.82,40.744,2.429,34.709,0,23.593l.941-6.425,3.435-7.2L9.149,4.936,17.5,1Zm5.537,1.662-5.518-.652L17.8,1.964l-8.055,3.8L5.211,10.544l-3.3,6.919-.893,6.1L3.361,34.29l4.181,5.747,6.294,4.806,5.565,1.5,3.813.476,8.772-1.443L38.142,41.6l5.936-6.972,2.1-7.928V21.909l-1.2-5.7L40.353,8.322,35.635,4.611Z" fill="#00c037"/>
            <path id="Tracé_564_-_Contour" data-name="Tracé 564 - Contour" d="M23.845-.5,29.811.2l6.618,3.126L41.5,7.319,46.4,15.661l1.28,6.091V26.9l-2.235,8.446L39.13,42.756l-6.61,4.052-9.276,1.526-4.132-.516-5.951-1.6L6.458,41.1l-4.5-6.179L-.508,23.611l.965-6.59,3.5-7.337,4.892-5.16,8.5-4.008Zm5.686,1.679L23.864.5l-6.212.977L15.219,2.629l2.434-1.147L23.864.5l5.667.67,6.342,3Zm-.28.974-5.368-.635-5.935.933L10.044,6.173,5.628,10.831,2.393,17.61l-.869,5.93,2.3,10.541,4.077,5.6,6.158,4.7L19.5,45.851l3.706.462,8.6-1.416,6-3.68,5.811-6.825,2.053-7.756V21.961l-1.17-5.569L39.969,8.657l-4.6-3.618ZM40.736,7.988l-3.7-2.911,3.7,2.911,2.908,4.958ZM5.833,9.161,9.447,5.349l.042-.02-.042.02Zm6.183,34.921L7.181,40.391,2.9,34.5.508,23.576l.917-6.26,1.828-3.831L1.425,17.316l-.917,6.26L2.9,34.5l4.286,5.891ZM46.676,21.857l0-.013,0,.013v0Zm-8.205,20.13,1.681-1.974-1.681,1.974-6.231,3.82Z" fill="#00c037"/>
            <path id="Tracé_565" data-name="Tracé 565" d="M23.724,47.517l-5.157-2.548L14.3,40.12l-2.808-5.565-.013-.051c-1.854-7-1.854-7.166-1.854-7.247,0-.178-.185-2.608-.3-4.2l0-.063,1.554-8.78L13.8,7.966l.038-.047c.01-.013,1.039-1.29,2.076-2.558,2.175-2.657,2.261-2.7,2.436-2.757.211-.079,2.911-1.244,4.679-2.011l.7-.3Zm-4.537-3.357,3.537,1.748V1.814c-1.389.6-3.449,1.491-3.952,1.7-.416.424-2.7,3.226-4.122,4.99l-2.824,6.023-1.508,8.526c.073.972.281,3.741.3,4.164.078.411,1.113,4.362,1.808,6.986l2.7,5.357Z" fill="#00c037"/>
            <path id="Tracé_565_-_Contour" data-name="Tracé 565 - Contour" d="M24.224,48.322l-5.967-2.948L13.878,40.4l-2.861-5.669-.027-.1c-1.839-6.943-1.87-7.213-1.87-7.367-.007-.188-.159-2.257-.3-4.167l-.009-.126,1.576-8.907L13.369,7.7l.075-.094c.01-.012,1.032-1.282,2.079-2.561,2.257-2.759,2.336-2.8,2.654-2.911.216-.084,2.52-1.076,4.649-2l1.4-.606Zm-5.347-3.758,4.347,2.148-4.347-2.148-4.14-4.7Zm.62-.809L22.224,45.1V2.575c-1.281.554-2.642,1.14-3.162,1.357-.491.537-2.365,2.825-3.985,4.835l-2.771,5.908-1.486,8.4c.084,1.117.267,3.56.3,4.076.1.485.981,3.85,1.781,6.87l2.651,5.253Zm-9-14.938c.271,1.061.719,2.778,1.44,5.5C11.547,32.828,10.908,30.4,10.5,28.817Zm-.687-5.794h0c0,.026.129,1.705.218,2.941-.074-1.017-.173-2.337-.214-2.878l0-.063ZM14.221,8.237l-2.244,4.786Zm3.786-4.618c-.307.356-.732.868-1.246,1.493C17.247,4.522,17.691,3.988,18.007,3.619Zm5.217-2.567c-.031.013-2.171.941-3.558,1.536.687-.294,1.655-.712,2.86-1.234Z" fill="#00c037"/>
            <path id="Tracé_566" data-name="Tracé 566" d="M28.49,29.1l1.47-2.516,4.1-1.6s4.164.491,4.348.614l2.143,1.442L38.9,29.59l-2.755,1.841-2.817.43-3.123-.43Z" fill="#00c037"/>
            <path id="Tracé_566_-_Contour" data-name="Tracé 566 - Contour" d="M33.331,32.366l-3.4-.469L27.893,29.13l1.724-2.95L34,24.476l.124.015c.01,0,1.056.125,2.111.262,2.244.291,2.333.351,2.457.433l2.144,1.443.408.275-1.978,3.046-2.933,1.96Zm-2.849-1.4,2.842.391,2.635-.4,2.577-1.722,1.33-2.048-1.681-1.131c-.372-.09-2.293-.345-4.058-.554L30.3,26.986l-1.216,2.082Z" fill="#00c037"/>
            <path id="Tracé_567" data-name="Tracé 567" d="M26.959,27.012c-.061-.184-1.041-1.657-1.041-1.657v-2.7L28,19.709l3.858-2.885h8.388l-.49,2.21-1.041,2.884-1.163,1.964-1.959-.675-2.511-.123-2.572.83-2.265,2.177Z" fill="#00c037"/>
            <path id="Tracé_567_-_Contour" data-name="Tracé 567 - Contour" d="M26.7,27.814l-.208-.627c-.079-.162-.57-.925-.988-1.555l-.084-.126V22.5l2.219-3.14,4.054-3.032h9.177l-.632,2.85-1.068,2.959-1.395,2.355L35.5,23.7l-2.349-.115-2.375.767-2.208,2.122Zm-.28-2.61c.329.5.55.84.7,1.08l.808-.579,2.322-2.232,2.769-.893,2.673.131,1.641.565.931-1.573,1.014-2.809.348-1.57h-7.6l-3.662,2.738-1.945,2.752Z" fill="#00c037"/>
            <path id="Ligne_1" data-name="Ligne 1" d="M20.148.5H0v-1H20.148Z" transform="translate(2.831 14.37)" fill="#00c037"/>
            <path id="Ligne_1_-_Contour" data-name="Ligne 1 - Contour" d="M20.648,1H-.5V-1H20.648ZM.5,0h0Z" transform="translate(2.831 14.37)" fill="#00c037"/>
            <path id="Ligne_2" data-name="Ligne 2" d="M20.178.5H0v-1H20.178Z" transform="translate(2.801 34.07)" fill="#00c037"/>
            <path id="Ligne_2_-_Contour" data-name="Ligne 2 - Contour" d="M20.678,1H-.5V-1H20.678ZM.5,0h0Z" transform="translate(2.801 34.07)" fill="#00c037"/>
            <path id="Ligne_3" data-name="Ligne 3" d="M22.134.5H0v-1H22.134Z" transform="translate(0.936 24.189)" fill="#00c037"/>
            <path id="Ligne_3_-_Contour" data-name="Ligne 3 - Contour" d="M22.634,1H-.5V-1H22.634ZM.5,0h0Z" transform="translate(0.936 24.189)" fill="#00c037"/>
          </g>
        </g>
        <text id="Itakagreen" transform="translate(176 123)" fill="#00c037" font-size="22" font-family="Montserrat-Medium, Montserrat" font-weight="500"><tspan x="0" y="0">Itakagreen</tspan></text>
      </g>
    </g>
  </g>
</svg>
