<svg xmlns="http://www.w3.org/2000/svg" xmlns:xlink="http://www.w3.org/1999/xlink" width="1920" height="1080" viewBox="0 0 1920 1080">
  <defs>
    <clipPath id="clip-Web_1920_6">
      <rect width="1920" height="1080"/>
    </clipPath>
  </defs>
  <g id="Web_1920_6" data-name="Web 1920 – 6" clip-path="url(#clip-Web_1920_6)">
    <rect width="1920" height="1080" fill="#fff"/>
    <path id="Tracé_95" data-name="Tracé 95" d="M753.183,695.248s785.083-223.706,791.278-222.666,276.811-132.061,276.811-132.061l117.06-44.689,197.694-8.007,306.232-53.362,252.713,42.372L2986.753,211,3314.2,303.029l238.483,130.549,559.2,344.357L3027.3,862.246,692.9,729.982Z" transform="translate(-1565.595 -328.246)" fill="#0a7c38"/>
    <path id="Tracé_273" data-name="Tracé 273" d="M754.97,695.248s808.358-223.706,814.736-222.666,285.018-132.061,285.018-132.061l88.733-52.7H2178.81l315.311-53.362,260.2,42.372L3054.757,211l337.149,92.029,245.553,130.549,575.776,344.357L3096.5,862.246,692.9,729.982Z" transform="translate(-1614.954 767.756)" fill="#0a7c38"/>
  </g>
</svg>
